<?xml version="1.0" encoding="UTF-8"?>
<!-- Created with Inkscape (http://www.inkscape.org/) -->
<svg width="520" height="520" version="1.1" viewBox="0 0 520 520" xmlns="http://www.w3.org/2000/svg" xmlns:cc="http://creativecommons.org/ns#" xmlns:dc="http://purl.org/dc/elements/1.1/" xmlns:rdf="http://www.w3.org/1999/02/22-rdf-syntax-ns#">
 <metadata>
  <rdf:RDF>
   <cc:Work rdf:about="">
    <dc:format>image/svg+xml</dc:format>
    <dc:type rdf:resource="http://purl.org/dc/dcmitype/StillImage"/>
    <dc:title/>
   </cc:Work>
  </rdf:RDF>
 </metadata>
 <!--<path d="m0.94202 260.94v-260h520v520h-520z" fill="#fefefe"/> -->
 <path d="m99.539 379.34c-45.688-8.2505-82.933-42.651-94.575-87.35-3.181-12.214-4.022-18.716-4.022-31.096 0-45.96 25.569-87.262 66.777-107.87 27.675-13.837 63.042-15.913 94.102-5.5229 27.017 9.0372 51.476 25.524 76.703 51.702 6.0043 6.2305 13.392 14.553 16.417 18.494 3.025 3.9414 5.725 7.1674 6 7.1689 0.275 2e-3 1.763-1.6683 3.3066-3.7108 16.266-21.523 43.643-46.092 66.988-60.118 32.724-19.661 69.931-25.21 103.6-15.452 64.759 18.766 100.98 87.586 80.409 152.78-11.245 35.643-41.352 65.673-77.173 76.974-14.32 4.518-24.859 5.8677-41.636 5.3319-17.538-0.56008-31.544-3.7-47.5-10.648-28.538-12.428-61.241-39.201-83.468-68.334-1.9932-2.6125-3.987-4.75-4.4306-4.75s-3.0065 2.8125-5.6951 6.25c-17.251 22.056-40.654 43.185-62.907 56.795-15.324 9.3723-33.995 16.612-50 19.388-11.113 1.9271-32.12 1.9078-42.903-0.0395zm41.257-41.513c13.039-3.2841 29.045-11.626 44.646-23.267 15.74-11.746 49.5-48.199 49.5-53.45 0-2.2648-9.5432-15.289-19.067-26.021-26.966-30.389-59.49-50.397-86.151-52.998-48.845-4.766-87.775 29.855-87.94 78.208-0.05805 16.946 3.127 29.245 11.009 42.513 17.573 29.579 53.241 43.771 88.003 35.015zm-59.854-77.881v-13h80v26h-80zm341 77.842c28.8-7.2473 50.426-29.828 56.664-59.163 2.2505-10.585 1.9614-28.256-0.62452-38.178-9.3516-35.881-38.965-58.567-76.528-58.625-23.577-0.0366-46.466 9.9532-72.539 31.66-15.086 12.559-42.019 43.089-41.95 47.553 0.0821 5.368 33.702 41.758 49.478 53.555 30.846 23.066 57.399 30.27 85.5 23.199zm-35-49.842v-13h-26v-28h26v-26h28v26h26v28h-26v26h-28z" fill="#ccefe8"/>
 <path d="m99.442 379.35c-23.503-4.4258-43.791-14.972-61.357-31.895-25.873-24.926-38.408-56.013-36.84-91.361 1.2643-28.498 10.99-53.34 28.815-73.597 32.917-37.41 83.175-50.754 131.62-34.947 31.426 10.254 65.093 35.445 91.958 68.807 3.5803 4.4462 6.8191 8.2027 7.1972 8.3478s3.8817-3.6799 7.7857-8.5c14.917-18.418 40.441-41.19 59.362-52.962 15.307-9.5241 34.48-17.286 50.457-20.426 10.483-2.0604 35.958-1.816 46.453 0.44569 48.168 10.38 83.441 45.634 93.727 93.679 2.5242 11.789 2.5263 37.179 4e-3 48.905-8.4198 39.145-36.716 72.644-73.097 86.536-17.981 6.8657-31.43 9.0739-50.393 8.2741-27.876-1.1757-53.647-11.238-81.648-31.878-12.544-9.247-34.744-30.783-44.547-43.216-4.125-5.2316-7.725-9.5122-8-9.5123s-3.425 3.8273-7 8.5054c-7.8468 10.268-23.42 26.294-35.004 36.02-22.617 18.991-47.243 32-70.996 37.504-11.625 2.6939-37.365 3.369-48.5 1.2721zm32.06-39.481c26.098-3.6299 54.274-21.269 82.972-51.945 7.8196-8.3584 17.115-20.089 19.604-24.739 1.6741-3.1281-0.0382-6.2594-10.681-19.531-9.9773-12.443-26.834-28.871-38.956-37.967-12.096-9.0763-31.795-18.918-43.718-21.841-11.681-2.8642-27.774-3.0861-38.712-0.53361-28.586 6.6709-50.608 28.289-58.194 57.128-3.2543 12.371-3.0134 31.02 0.55474 42.951 4.4179 14.771 9.6769 23.732 20.029 34.126 7.5121 7.5426 10.622 9.8672 18.399 13.754 17.157 8.5738 31.133 11.041 48.701 8.5978zm-50.56-79.928v-13h80v26h-80zm331.03 79.939c18.518-2.3186 32.562-9.3043 46.138-22.95 7.4408-7.4795 9.3759-10.176 13.708-19.099 6.427-13.24 8.5354-22.216 8.5473-36.39 0.0121-14.432-2.2531-24.285-8.6114-37.46-4.4458-9.2121-6.1375-11.544-14.178-19.54-13.608-13.534-27.836-20.208-48.199-22.61-22.372-2.6385-45.578 5.2698-71.43 24.343-16.688 12.312-51 49.113-51 54.699 0 2.6717 10.22 16.116 20.947 27.557 22.383 23.871 45.594 40.375 66.752 47.464 14.752 4.9425 22.815 5.8036 37.327 3.9866zm-25.026-51.939v-13h-26v-28h26v-26h28v26h26v28h-26v26h-28z" fill="#b0e6db"/>
 <path d="m106.94 380.34c-12.508-2.3209-18.967-3.7482-22.886-5.0566-29.995-10.016-55.122-31.387-69.395-59.024-31.133-60.28-7.0519-133.28 53.729-162.86 46.778-22.772 98.919-14.044 147.05 24.616 12.29 9.8709 24.029 21.553 35.009 34.84 5.4951 6.6495 10.23 12.09 10.522 12.09s3.8918-4.0999 8.0001-9.111c10.06-12.27 31.361-32.798 42.987-41.427 29.818-22.131 54.678-31.886 84.483-33.148 60.124-2.5464 112.41 40.118 122.94 100.31 4.9812 28.478-2.0503 61.094-18.62 86.374-6.5748 10.03-21.712 25.033-32.728 32.437-19.578 13.159-38.191 19.221-62.093 20.222-34.859 1.4607-68.787-11.673-102.04-39.502-11.391-9.5322-27.244-25.726-35.885-36.657-3.4781-4.4-6.6046-8.0935-6.9478-8.2077-0.34318-0.11423-3.099 3.0198-6.124 6.9646-7.8142 10.19-27.863 30.63-38.475 39.225-22.883 18.535-43.309 29.256-66.954 35.143-7.8978 1.9663-13.308 2.5863-25.071 2.8731-8.25 0.20119-16.125 0.15705-17.5-0.0981zm34.284-42.314c8.3884-2.1785 22.105-8.2368 30.194-13.336 20.509-12.929 44.331-35.484 59.099-55.956l5.5584-7.7056-4.048-5.9609c-11.057-16.282-31.537-37.535-47.85-49.659-10.864-8.0731-32.129-18.84-42.736-21.638-10.519-2.7748-29.801-3.0138-39.942-0.49492-30.947 7.6863-53.576 31.888-59.023 63.124-1.9282 11.057-1.936 17.977-0.03272 28.891 5.8388 33.482 30.925 58.581 64.545 64.579 7.9953 1.4264 25.213 0.49861 34.237-1.8448zm-60.284-78.086v-13h80v26h-80zm333 79.942c8.7632-1.4057 21.773-5.9721 28.709-10.077 8.3569-4.9459 20.644-17.054 25.959-25.582 16.697-26.789 16.089-63.307-1.4807-88.959-13.785-20.126-36.068-32.385-61.687-33.937-20.44-1.2381-42.41 6.512-65.264 23.022-15.998 11.558-35.085 30.383-46.73 46.09-8.413 11.348-8.3754 9.8798-0.52154 20.338 25.296 33.686 59.679 60.011 87.582 67.056 4.3632 1.1016 9.0582 2.1898 10.433 2.4182 5.0205 0.83383 16.662 0.64646 23-0.37017zm-27-51.942v-13h-26v-28h26v-26h28v26h26v28h-26v26h-28z" fill="#99e0d2"/>
 <path d="m105.94 379.92c-76.461-10.593-123.06-86.221-97.91-158.89 9.7153-28.069 31.121-52.763 57.428-66.25 19.041-9.7614 34.185-13.312 56.481-13.242 18.368 0.0577 31.054 2.5511 48.691 9.5702 28.64 11.398 60.284 36.668 84.492 67.472 2.7498 3.4991 5.358 6.362 5.7958 6.362 0.43785 0 3.3998-3.2625 6.5822-7.25 9.0162-11.297 32.881-34.533 44.102-42.94 24.882-18.641 46.908-28.493 72.337-32.355 23.323-3.5421 47.685 0.31505 69.629 11.024 72.497 35.381 89.895 131.48 34.385 189.93-17.109 18.015-38.539 29.821-64.013 35.266-11.214 2.3967-36.119 2.3703-47-0.0498-38.654-8.5972-77.608-35.118-108.9-74.142-3.5219-4.3917-6.7184-7.9849-7.1034-7.9849-0.38501 0-3.5287 3.6-6.9859 8-3.4572 4.4-12.411 14.086-19.897 21.525-29.337 29.152-57.554 45.788-89.111 52.538-8.9467 1.9136-29.916 2.6754-39 1.4168zm27.566-40.031c26.364-4.6697 55.786-23.663 82.511-53.265 5.3706-5.9489 12.072-14.154 14.892-18.234l5.1276-7.4174-4.2162-6.2665c-10.892-16.189-33.43-39.211-49.941-51.015-11.71-8.3715-28.88-17.046-39.439-19.926-6.4666-1.7635-10.683-2.1783-22-2.1642-12.346 0.0155-15.063 0.33969-23 2.7441-26.453 8.014-45.4 27.001-52.982 53.094-10.715 36.871 4.2882 75.195 36.544 93.348 15.016 8.4509 35.818 12.057 52.505 9.101zm-52.566-79.949v-13h80v26h-80zm333.9 79.946c25.356-4.1142 46.995-20.269 58.088-43.369 6.1986-12.907 7.447-18.918 7.3887-35.578-0.0449-12.822-0.36576-15.542-2.7721-23.5-7.5761-25.056-25.354-43.752-49.372-51.921-21.351-7.2619-42.59-5.6817-64.733 4.8162-25.06 11.881-52.49 35.79-72.099 62.845l-5.5818 7.7012 4.8405 6.9418c10.636 15.252 29.822 35.015 45.841 47.218 27.124 20.663 53.216 28.931 78.401 24.845zm-27.901-51.946v-13h-26v-28h26v-26h28v26h26v28h-26v26h-28z" fill="#78d6c4"/>
 <path d="m106.94 379.84c-76.48-8.5703-124.52-86.903-98.372-160.4 13.527-38.022 47.325-66.984 88.372-75.729 12.595-2.6832 34.869-2.9101 47.076-0.47951 38.315 7.629 77.314 33.621 108.75 72.478l8.3074 10.27 6.2753-7.7695c24.196-29.958 54.628-54.151 83.825-66.64 53.499-22.885 114.33-6.4188 147.29 39.871 20.427 28.685 27.201 65.238 18.44 99.5-10.725 41.941-43.904 75.123-85.975 85.982-32.065 8.2765-65.324 2.9181-97.986-15.787-23.166-13.267-47.873-35-65.305-57.446-3.3103-4.2625-6.3053-7.75-6.6556-7.75-0.35026 0-3.6954 3.8469-7.4336 8.5488-9.7356 12.245-22.566 25.478-34.106 35.176-37.368 31.402-74.012 44.489-112.5 40.176zm29.369-40.39c23.948-5.0738 51.345-22.516 75.479-48.052 12.063-12.764 24.475-29.172 23.666-31.282-1.2743-3.3207-11.878-17.133-19.774-25.758-30.879-33.729-60.959-51.429-90.239-53.099-42.174-2.4063-77.137 25.551-83.605 66.852-1.3943 8.9042-0.57611 25.984 1.6446 34.33 3.894 14.635 14.323 31.016 25.794 40.512 9.8182 8.1284 26.619 15.538 39.166 17.273 7.0451 0.9743 21.51 0.57181 27.869-0.77548zm-55.369-79.51v-13h80v26h-80zm342.97 78.003c26.711-7.6261 47.11-28.53 54.648-56.003 2.7936-10.18 2.592-33.035-0.38196-43.299-7.8078-26.947-28.049-47.218-54.796-54.875-6.6124-1.8931-10.289-2.2671-21.943-2.2318-12.35 0.0374-15.061 0.36649-23 2.7917-28.958 8.8461-66.081 38.225-87.558 69.293l-5.0614 7.3216 5.139 7.4338c11.719 16.951 35.706 40.572 53.169 52.356 13.177 8.8915 28.188 15.66 41.811 18.852 8.1987 1.9211 28.585 1.0412 37.973-1.6391zm-36.973-50.003v-13h-26v-28h26v-26h28v26h26v28h-26v26h-28z" fill="#51cbb3"/>
 <path d="m108.69 379.87c-50.218-5.0874-92.237-41.72-103.83-90.516-12.774-53.787 12.53-109.56 60.91-134.25 18.98-9.6845 34.164-13.287 56.167-13.327 38.542-0.0694 74.135 16.789 110.5 52.338 7.15 6.9894 16.375 16.982 20.5 22.206 4.125 5.224 7.7846 9.412 8.1326 9.3068 0.3479-0.10524 3.0479-3.1436 6-6.7519 23.108-28.245 49.003-49.945 75.416-63.2 71.19-35.725 154.18-0.19819 173.93 74.454 15.279 57.763-14.196 117.86-69.137 140.95-33.883 14.243-71.014 12.205-106.58-5.8491-25.522-12.957-52.321-35.752-73.518-62.532l-6.124-7.7372-6.2459 7.7372c-11.386 14.105-19.248 22.374-31.636 33.279-37.733 33.212-75.806 47.807-114.49 43.887zm28.275-40.347c14.282-3.0279 30.588-10.995 47.223-23.074 10.15-7.3698 36.348-33.339 43.89-43.508 9.3401-12.591 9.0949-10.717 2.6436-20.204-24.082-35.412-64.825-65.392-96.321-70.876-8.7061-1.5161-28.033-0.6339-35.46 1.6186-30.232 9.1684-50.258 30.662-56.673 60.827-2.0871 9.8137-1.288 29.446 1.6063 39.464 8.3147 28.78 30.184 49.227 59.567 55.692 7.9621 1.7519 25.4 1.7838 33.524 0.0612zm-56.024-79.082v-12.5h80v25h-80zm337.53 78.961c27.917-5.7665 49.061-24.682 58.64-52.461 3.1622-9.1705 3.2767-10.055 3.3011-25.5 0.0222-14.042-0.26193-16.915-2.3213-23.473-8.6361-27.504-26.463-45.445-53.653-54-10.776-3.3901-29.279-3.9108-40.807-1.1482-22.404 5.3688-43.244 18.087-66.562 40.621-10.998 10.628-24.202 26.005-28.981 33.75l-2.314 3.75 2.2663 3.667c4.1547 6.7225 14.121 18.726 23.811 28.679 36.736 37.732 72.441 53.175 106.62 46.116zm-30.755-51.711-0.27903-13.25-26.5-0.55805v-25.884l26.5-0.55805 0.27903-13.25 0.27902-13.25h25.884l0.27902 13.25 0.27903 13.25 26.5 0.55805v25.884l-26.5 0.55805-0.27903 13.25-0.27902 13.25h-25.884z" fill="#36c3a7"/>
 <path d="m109.94 379.86c-40.669-3.4978-76.99-28.199-95.461-64.921-8.9505-17.795-12.64-33.565-12.633-54 0.016033-46.155 25.18-86.686 66.593-107.26 16.353-8.1243 32.642-11.803 52.5-11.856 31.453-0.0843 58.082 9.6382 89 32.496 11.09 8.1984 34.982 31.619 43.988 43.121 3.4454 4.4 6.5918 8.1281 6.9921 8.2846 0.40023 0.15652 2.5482-2.1267 4.7733-5.0738 10.522-13.937 32.188-35.11 47.747-46.661 30.193-22.416 56.535-32.148 87-32.141 21.544 5e-3 36.825 3.6444 55.667 13.259 36.158 18.45 60.252 54.374 63.712 94.996 3.0559 35.877-9.3683 70.342-34.371 95.344-28.353 28.353-68.817 40.393-109.36 32.541-15.747-3.0493-36.821-12.291-53.513-23.467-18.881-12.642-40.528-32.792-54.131-50.389-3.85-4.9803-7.225-9.0617-7.5-9.0697s-3.425 3.8214-7 8.5097-11.225 13.342-17 19.231c-41.006 41.813-83.302 60.816-127 57.057zm35-42.371c22.007-7.1381 42.57-21.13 65.145-44.326 12.076-12.408 25.79-29.412 25.834-32.029 0.0608-3.6731-19.915-28.294-32.532-40.097-29.091-27.213-55.61-40.125-82.324-40.081-12.371 0.0202-20.879 1.6172-31.699 5.95-15.458 6.1897-29.007 17.721-37.309 31.752-12.761 21.569-14.675 49.981-4.9994 74.207 7.8205 19.581 25.069 36.334 44.395 43.12 11.617 4.0787 17.387 4.9185 31.49 4.5826 11.455-0.2728 14.787-0.73906 22-3.0785zm-64-77.55v-12h80v24h-80zm337.36 79.497c37.408-7.7268 62.608-39.025 62.633-77.789 0.0239-36.879-19.986-65.345-53.993-76.808-8.2629-2.7853-11.193-3.2579-22.5-3.6289-11.489-0.377-14.128-0.13492-22.706 2.0824-23.823 6.1584-47.486 21.82-72.343 47.883-12.407 13.008-23.847 28.29-22.943 30.647 1.6093 4.1938 13.292 18.767 23.941 29.864 24.333 25.357 48.159 41.053 71.668 47.209 9.194 2.4078 25.99 2.6585 36.242 0.54092zm-30.58-51.747-0.27903-13.25-26.5-0.55805v-25.884l26.5-0.55805 0.27903-13.25 0.27902-13.25h25.884l0.27902 13.25 0.27903 13.25 26.5 0.55805v25.884l-26.5 0.55805-0.27903 13.25-0.27902 13.25h-25.884z" fill="#28bfa1"/>
 <path d="m110.58 379.86c-41.877-3.6373-77.923-28.343-96.909-66.42-13.826-27.729-15.606-63.62-4.6555-93.883 11.899-32.883 40.195-60.368 73.711-71.597 12.385-4.1494 24.537-6.0199 39.099-6.0183 31.306 3e-3 58.192 9.9804 88.619 32.884 11.67 8.7844 34.208 31.028 43.433 42.864 3.5364 4.5375 6.7278 8.25 7.092 8.25s4.3499-4.4628 8.8571-9.9173c26.585-32.173 61.692-58.097 92.118-68.022 24.552-8.0093 54.298-8.1601 76.946-0.3902 42.171 14.468 73.082 51.188 80.107 95.159 1.3711 8.583 1.3567 27.8-0.0276 36.693-1.6486 10.591-6.6965 25.97-11.738 35.759-30.686 59.588-103.12 82.007-164.74 50.99-26.652-13.415-56.887-39.149-76.355-64.987-2.5818-3.4267-4.975-6.1299-5.3182-6.0072-0.34317 0.12272-3.4429 3.8231-6.8883 8.2231-9.0437 11.549-32.858 34.91-44.488 43.642-25.479 19.128-52.213 30.629-75.194 32.349-4.2934 0.32133-9.3813 0.72258-11.306 0.89166s-7.489-0.039-12.364-0.46253zm29.926-40.921c17.476-4.405 41.301-18.71 60.945-36.592 13.533-12.319 34.346-37.232 34.457-41.244 0.0609-2.2075-9.3921-15.16-18.782-25.735-18.618-20.968-38.923-36.895-58.667-46.017-24.997-11.55-53.803-11.252-76.808 0.79261-11.418 5.9784-25.485 20.004-31.387 31.296-6.1195 11.708-8.4048 20.704-9.0368 35.573-1.0426 24.531 5.1577 42.33 20.572 59.054 10.682 11.59 25.331 19.872 41.259 23.328 9.9254 2.1533 27.97 1.9335 37.45-0.45606zm-59.562-78.999v-12h80v24h-80zm345.5 77.64c24.977-8.2245 42.928-26.177 51.136-51.14 3.7833-11.507 4.4913-32.183 1.5271-44.597-3.5489-14.862-9.7921-26.469-19.985-37.156-14.709-15.421-35.208-23.756-58.386-23.74-14.588 0.01-24.361 2.5517-40.292 10.479-19.092 9.5002-34.638 21.747-53.933 42.487-8.9233 9.5918-20.547 24.809-20.559 26.915-0.0318 5.4181 34.319 42.789 50.075 54.478 15.911 11.804 31.178 19.627 46.266 23.71 5.9264 1.6034 9.6315 1.8715 21.65 1.5665 12.34-0.31318 15.692-0.76035 22.5-3.0022zm-38.5-50.14v-13.5h-27v-26h27v-27h25.942l0.27902 13.25 0.27903 13.25 26.5 0.55805v25.942h-27v27h-26z" fill="#19bb9b"/>
</svg>
