<?xml version="1.0" encoding="UTF-8"?>
<!-- Created with Inkscape (http://www.inkscape.org/) -->
<svg width="682.67" height="682.67" version="1.1" viewBox="0 0 682.67 682.67" xmlns="http://www.w3.org/2000/svg" xmlns:cc="http://creativecommons.org/ns#" xmlns:dc="http://purl.org/dc/elements/1.1/" xmlns:rdf="http://www.w3.org/1999/02/22-rdf-syntax-ns#">
 <metadata>
  <rdf:RDF>
   <cc:Work rdf:about="">
    <dc:format>image/svg+xml</dc:format>
    <dc:type rdf:resource="http://purl.org/dc/dcmitype/StillImage"/>
    <dc:title/>
   </cc:Work>
  </rdf:RDF>
 </metadata>
 <g stroke-width="1.3333">
  <!--<path d="m1.8261 342.49v-341.33h682.67v682.67h-682.67z" fill="#fcfdfd"/> -->
  <path d="m304.62 660.4c-8.3628-1.028-15.354-2.0268-15.535-2.2195-0.53336-0.56671 2.9493-19.671 3.7279-20.449 0.61248-0.6125 15.533 0.62876 35.4 2.945l5.7211 0.667-0.7756 20.487-6.6667 0.21948c-3.6667 0.12067-13.509-0.62161-21.872-1.6496zm71.405-6.2115c-0.46408-3.8638-0.84899-8.8922-0.85536-11.174-0.012-4.1442-8.6e-4 -4.1503 8.9884-5.0693 34.06-3.4819 82.776-21.107 116.33-42.088 37.726-23.587 73.106-58.788 95.349-94.864 4.552-7.3832 5.5901-10.076 4.5986-11.928-2.3648-4.4187-1.4774-13.882 1.7512-18.672 9.5604-14.187 27.043-14.187 36.603 0 4.1157 6.1073 4.1157 15.435 0 21.542-3.6822 5.464-10.945 10.562-15.046 10.562-2.278 0-4.3983 2.2036-8.6597 9-41.802 66.669-108.87 117.29-184.06 138.92-12.086 3.4773-20.278 5.1317-50.014 10.1-4.1219 0.68872-4.1493 0.654-4.9884-6.3325zm-144.2-11.561c-19.012-7.188-26-10.438-26-12.094 0-1.2056 7.4895-17.108 8.6955-18.463 0.2087-0.2345 2.6876 0.74228 5.5086 2.1706 2.8211 1.4283 11.129 4.8304 18.463 7.5601 7.3333 2.7297 13.545 5.1646 13.804 5.4109 0.57543 0.54775-5.1357 18.253-6.3021 19.537-0.45924 0.50563-6.835-1.3491-14.168-4.1216zm-73.404-38.578c-10.002-7.2536-24.596-19.014-24.596-19.82 0-0.38728 3.0648-4.2418 6.8106-8.5657l6.8106-7.8616 4.8561 4.045c2.6708 2.2248 9.5061 7.4361 15.189 11.581 5.6833 4.1446 10.333 8.0635 10.333 8.7087 0 1.7344-10.607 17.046-11.716 16.913-0.52268-0.0628-3.9819-2.3127-7.6872-5zm155.46-17.671c-60.321-7.8027-115.93-37.129-154.86-81.669-39.826-45.559-61.17-102.16-61.17-162.21 0-135.64 109.68-245.31 245.31-245.31 135.25 0 245.41 109.84 245.32 244.61-0.0859 125.78-93.292 230.38-217.99 244.64-13.901 1.5892-44.115 1.5582-56.61-0.0581zm39.944-137.73v-32.518l4.9981-0.93765c6.3198-1.1856 19.828-6.8305 24.802-10.364l3.7998-2.6997 22.533 22.504c12.393 12.377 22.534 22.945 22.534 23.484 0 1.7709-19.14 14.49-28.667 19.05-5.1333 2.457-12.933 5.692-17.333 7.1888-11.68 3.9732-5.7943 3.4046 11.577-1.1184 45.53-11.855 91.892-38.115 138.81-78.623 17.073-14.739 50.276-49.156 50.276-52.114 0-2.9576-33.203-37.375-50.276-52.114-46.922-40.509-93.285-66.768-138.81-78.623-17.371-4.523-23.256-5.0916-11.577-1.1184 4.4 1.4968 12.2 4.7318 17.333 7.1888 9.5271 4.5602 28.667 17.279 28.667 19.05 0 0.53899-10.14 11.107-22.534 23.484l-22.533 22.504-3.801-2.7065c-4.6455-3.3079-19.13-9.2934-25.283-10.448l-4.5158-0.84717v-65.037h-21.333v65.037l-4.5158 0.84717c-6.1527 1.1542-20.637 7.1398-25.283 10.448l-3.801 2.7065-22.533-22.504c-12.393-12.377-22.534-22.945-22.534-23.484 0-1.7709 19.14-14.49 28.667-19.05 5.1333-2.457 12.933-5.692 17.333-7.1888 11.68-3.9732 5.7943-3.4046-11.577 1.1184-45.53 11.855-91.892 38.115-138.81 78.623-17.073 14.739-50.276 49.156-50.276 52.114 0 2.9576 33.203 37.375 50.276 52.114 46.922 40.509 93.285 66.768 138.81 78.623 17.371 4.523 23.256 5.0916 11.577 1.1184-4.4-1.4968-12.2-4.7318-17.333-7.1888-9.5271-4.5602-28.667-17.279-28.667-19.05 0-0.53899 10.14-11.107 22.534-23.484l22.533-22.504 3.7998 2.6997c4.9733 3.5335 18.482 9.1784 24.802 10.364l4.9981 0.93765v65.037h21.333zm-123.04-25.148c-8.4263-12.013-11.158-16.84-15.529-27.44-3.8987-9.4544-8.5097-26.625-9.9969-37.227l-0.79491-5.6667h65.068l0.84717 4.5158c1.1543 6.1527 7.1398 20.637 10.448 25.283l2.7066 3.801-22.504 22.534c-12.377 12.393-22.931 22.533-23.452 22.533s-3.5777-3.75-6.7926-8.3333zm194.51-14.2-22.504-22.534 2.7066-3.801c3.3079-4.6455 9.2934-19.13 10.448-25.283l0.84717-4.5158h65.157l-0.80364 5c-4.4277 27.548-12.4 47.494-26.912 67.333-2.548 3.4833-5.0382 6.3333-5.5338 6.3333-0.49564 0-11.028-10.14-23.405-22.533zm-94.8-14.637c-15.003-3.9292-28.809-15.294-35.711-29.398-4.003-8.18-4.2892-9.7011-4.2892-22.794 0-13.12 0.27967-14.598 4.3115-22.786 5.267-10.697 16.002-21.255 26.685-26.245 6.7866-3.17 9.283-3.5841 21.67-3.5945 13.072-0.0107 14.581 0.27253 22.765 4.2775 10.743 5.2572 21.33 16.033 26.24 26.707 3.0889 6.7153 3.5347 9.4149 3.5786 21.671 0.0445 12.455-0.34477 14.846-3.5285 21.671-5.0406 10.805-15.59 21.488-26.29 26.625-7.3781 3.542-10.558 4.2636-20.098 4.5609-6.2333 0.19426-13.133-0.11826-15.333-0.69438zm-125.32-67.829c3.992-24.837 11.25-44.248 23.018-61.562 4.1977-6.1759 8.2372-11.428 8.9766-11.67 0.7394-0.24283 11.473 9.7002 23.852 22.096l22.508 22.537-2.7066 3.801c-3.3079 4.6455-9.2934 19.13-10.448 25.283l-0.84717 4.5158h-65.157zm210.68 1e-3c-1.1856-6.3198-6.8305-19.828-10.364-24.802l-2.6998-3.7998 22.508-22.537c12.379-12.395 23.113-22.338 23.852-22.096 2.7962 0.9183 16.838 23.357 21.423 34.233 4.5525 10.8 8.7193 26.046 10.476 38.333l0.81031 5.6667h-65.068zm-103.72 150.86c-0.44307-0.44306-1.5931-0.49042-2.5556-0.1052-1.0636 0.42562-0.74771 0.74157 0.80556 0.80554 1.4055 0.0579 2.193-0.25724 1.75-0.70029zm65.333 0c-0.44305-0.44306-1.5931-0.49042-2.5556-0.1052-1.0636 0.42562-0.74771 0.74157 0.80556 0.80554 1.4056 0.0579 2.193-0.25724 1.75-0.70029zm-65.333-270.67c-0.44307-0.44305-1.5931-0.49041-2.5556-0.1052-1.0636 0.42563-0.74771 0.74157 0.80556 0.80555 1.4055 0.0579 2.193-0.25724 1.75-0.7003zm65.333 0c-0.44305-0.44305-1.5931-0.49041-2.5556-0.1052-1.0636 0.42563-0.74771 0.74157 0.80556 0.80555 1.4056 0.0579 2.193-0.25724 1.75-0.7003zm-322.41 15.108c-6.9104-4.6569-10.562-10.985-10.562-18.302 0-9.8073 9.7671-21.333 18.078-21.333 2.278 0 4.3983-2.2036 8.6597-9 11.76-18.756 29.06-40.271 45.859-57.031 39.863-39.772 87.332-67.607 141.12-82.746 11.224-3.1594 50.222-10.4 51.129-9.4936 0.21135 0.21135 0.78737 5.2178 1.28 11.125l0.89578 10.741-9.1749 0.93798c-34.059 3.482-82.477 20.932-116.28 41.91-37.265 23.124-73.351 59.016-95.573 95.06-4.552 7.3832-5.5901 10.076-4.5986 11.928 0.70428 1.316 1.2805 5.0434 1.2805 8.2831 0 11.156-9.974 20.952-21.333 20.952-4.3162 0-7.6754-0.94551-10.771-3.0317zm476.25-111.01c-3.9554-3.3312-10.705-8.5214-15-11.534-4.2946-3.0125-7.8083-6.0232-7.8083-6.6905 0-1.3927 10.451-17.067 11.38-17.067 1.9917 0 32.645 23.657 32.588 25.15-0.0177 0.46739-3.1678 4.3031-7 8.5239l-6.9676 7.674zm-68.808-42.004c-4.4-2.0993-12.65-5.3971-18.333-7.3284-5.6833-1.9313-10.333-3.9683-10.333-4.5266 0-0.83878 3.609-11.978 5.9696-18.425 0.9845-2.6888 40.697 12.495 40.697 15.56 0 1.9104-8.4053 18.792-9.2862 18.651-0.3926-0.06293-4.3138-1.832-8.7138-3.9313zm-87.333-22.879c-6.2333-0.65613-13.883-1.5032-17-1.8823l-5.6667-0.68934v-9.9601c0-8.0385 0.42579-10.124 2.2069-10.807 1.9165-0.73542 41.542 2.89 42.524 3.8906 0.35248 0.35902-1.4204 11.831-2.7878 18.04-0.73901 3.3555-0.76184 3.3571-19.277 1.4083z" fill="#698fb8"/>
  <path d="m326.49 661.64c-17.049-1.2906-35.468-3.6199-36.048-4.5587-0.36959-0.598 0.0353-5.3703 0.89985-10.605 1.4338-8.6817 1.8167-9.4521 4.3599-8.7703 1.5334 0.41112 10.438 1.4846 19.788 2.3856l17 1.6381v10.381c0 5.7097-0.15 10.28-0.33333 10.157-0.18333-0.12333-2.7333-0.40581-5.6667-0.62786zm50.794-3.3126c-0.32173-1.0095-0.95725-5.5449-1.4122-10.079l-0.82727-8.2432 6.3894-0.87517c32.412-4.4395 62.718-13.649 91.723-27.872 48.369-23.719 88.911-58.763 117.79-101.82 11.267-16.798 11.112-16.399 9.3697-23.946-1.3186-5.7123-1.1658-7.2731 1.2449-12.723 4.6575-10.529 15.583-15.099 26.306-11.004 19.125 7.3041 17.529 34.256-2.3436 39.571-5.2772 1.4115-6.5032 2.5516-11.617 10.805-22.47 36.263-59.162 73.606-96.082 97.79-34.124 22.352-73.561 38.468-112.07 45.796-22.111 4.2077-27.792 4.7252-28.471 2.5937zm-152.56-19.063c-9.77-3.9535-18.059-7.4839-18.421-7.8453-0.53216-0.53216 6.6983-16.336 8.2704-18.077 0.24028-0.26608 5.4192 1.6304 11.509 4.2145 6.0895 2.584 14.222 5.7926 18.072 7.1301 5.4109 1.8798 6.9765 3.0418 6.8967 5.1189-0.18646 4.8485-4.751 16.014-6.6776 16.334-1.0371 0.17242-9.8793-2.9212-19.649-6.8747zm-66.96-36.541c-4.7981-3.4273-12.084-8.9845-16.191-12.349l-7.4675-6.118 6.1913-7.4713c3.4052-4.1092 6.5435-7.5061 6.9741-7.5486 0.66209-0.0655 12.007 8.4826 26.948 20.304l3.7304 2.9516-4.909 7.3333c-2.6999 4.0333-5.2786 7.7374-5.7304 8.2314-0.45178 0.49392-4.7471-1.9061-9.5452-5.3333zm163.26-16.348c-34.597-3.0902-73.387-15.642-102.78-33.256-68.784-41.225-112.12-111.02-119.14-191.89-0.78224-9.0088-1.232-16.57-0.99941-16.803 0.23257-0.23257 5.5133 5.295 11.735 12.284 11.075 12.44 31.381 31.859 47.312 45.246 45.918 38.585 96.736 65.074 144.67 75.409 11.977 2.5825 17.949 3.0186 41.333 3.0186s29.356-0.43613 41.333-3.0186c47.931-10.335 98.749-36.824 144.67-75.409 15.931-13.387 36.237-32.806 47.312-45.246 6.2216-6.9885 11.502-12.516 11.735-12.284 1.0165 1.0165-2.6658 34.38-5.1281 46.463-17.539 86.068-79.257 156-161.92 183.47-33.718 11.206-65.911 15.068-100.13 12.011zm-5.8687-108.62c-21.87-4.6925-44.456-15.576-61.27-29.524-0.33208-0.27547 9.5462-10.664 21.952-23.086l22.556-22.585 3.3815 2.2328c6.0293 3.9812 16.101 8.4349 23.155 10.239l6.8933 1.7634 0.35746 31.515 0.35747 31.515-4.3575-0.106c-2.3966-0.0583-8.2575-0.94282-13.024-1.9656zm38.975-29.269 0.35788-31.69 6.8933-1.7634c7.0544-1.8046 17.126-6.2583 23.155-10.239l3.3815-2.2328 22.556 22.585c12.406 12.422 22.284 22.823 21.952 23.114-16.752 14.692-48.059 28.456-70.498 30.994l-8.1547 0.9226zm-118.52-19.615c-13.448-14.811-26.711-45.506-29.212-67.606l-0.9226-8.1547 63.381 0.71576 1.7634 6.8933c1.8046 7.0544 6.2583 17.126 10.239 23.155l2.2329 3.3815-44.718 44.66zm189.84-19.421-22.257-22.29 2.6849-4c3.8545-5.7425 7.8644-14.964 9.8568-22.667l1.7243-6.6667 63.381-0.71576-0.9226 8.1547c-2.016 17.819-9.7733 38.64-20.802 55.832-11.102 17.308-8.0564 17.999-33.665-7.6471zm-92.9-15.005c-27.208-5.6765-46.29-33.34-41.552-60.239 5.1069-28.992 32.411-48.81 60.445-43.872 33.424 5.8874 52.897 39.635 41.037 71.117-5.1136 13.575-18.048 26.196-31.746 30.976-7.5286 2.6277-20.729 3.5721-28.185 2.0165zm-233.98-65.351c3.7932-54.093 22.993-102.99 56.051-142.73 90.728-109.08 254.38-118.87 356.86-21.349 44.538 42.384 70.316 96.42 75.727 158.74 0.78224 9.0088 1.232 16.57 0.99942 16.803-0.23258 0.23257-5.5133-5.295-11.735-12.284-11.075-12.44-31.381-31.859-47.312-45.246-45.918-38.585-96.736-65.074-144.67-75.409-11.977-2.5825-17.949-3.0186-41.333-3.0186s-29.356 0.43613-41.333 3.0186c-66.14 14.261-138.24 60.203-195.87 124.81l-8.2665 9.2671zm107.83-5.3727c1.1232-9.9277 6.0164-27.118 10.758-37.795 3.7908-8.5352 13.896-24.891 18.419-29.811l2.7987-3.0446 44.718 44.66-2.2329 3.3815c-3.9812 6.0292-8.4349 16.101-10.239 23.155l-1.7634 6.8933-63.381 0.71576zm210.98 7.2167c-0.48889-0.48888-0.88889-2.0365-0.88889-3.4392 0-3.6002-6.4734-19.445-10.208-24.987l-3.1329-4.6485 22.249-22.278c12.237-12.253 22.752-21.968 23.367-21.588 0.61452 0.37978 3.6146 4.071 6.6668 8.2026 11.794 15.964 22.324 42.415 24.483 61.497l0.91982 8.1301h-31.283c-17.206 0-31.683-0.4-32.172-0.8889zm-141.54-71.096c-12.406-12.422-22.284-22.823-21.952-23.114 16.752-14.692 48.059-28.456 70.498-30.994l8.1547-0.9226-0.35788 31.69-0.35788 31.69-6.8933 1.7634c-7.0544 1.8046-17.126 6.2583-23.155 10.239l-3.3815 2.2328zm107.99 19.93c-5.7425-3.8545-14.964-7.8644-22.667-9.8568l-6.6667-1.7243-0.35788-31.69-0.35788-31.69 8.1547 0.9226c19.395 2.1942 45.515 12.637 62.562 25.011 4.3568 3.1626 7.939 6.0567 7.9604 6.4315 0.0213 0.37476-10.011 10.716-22.294 22.982l-22.333 22.3zm-326.97-57.23c-9.9442-4.5142-14.396-15.667-10.415-26.091 2.6523-6.9449 7.1524-10.881 14.77-12.918 4.7843-1.2796 6.2145-2.6449 11.202-10.694 22.47-36.263 59.162-73.606 96.082-97.79 39.693-26 86.7-43.44 132.98-49.336 7.9884-1.0178 7.7344-1.3297 8.9743 11.025l0.82727 8.2432-6.3894 0.87516c-32.412 4.4395-62.718 13.649-91.723 27.872-40.033 19.631-71.963 44.668-100.45 78.767-14.272 17.082-28.585 39.143-27.635 42.593 3.5206 12.778 0.153 22.023-9.8624 27.073-7.2284 3.6451-10.995 3.7234-18.357 0.38157zm470.19-115.43c-6.1694-4.7933-12.884-10.043-14.921-11.667l-3.7034-2.9517 11.08-16.658 8.8302 6.2651c4.8566 3.4458 12.207 9.0575 16.335 12.47l7.5049 6.2053-6.1716 7.4482c-3.3944 4.0965-6.5239 7.483-6.9544 7.5255-0.43055 0.0425-5.8306-3.8444-12-8.6377zm-64.551-38.691c-3.6667-1.7575-11.317-4.8499-17-6.872-6.3542-2.2607-10.333-4.4103-10.333-5.5821 0-3.6691 4.5986-16.453 6.1297-17.041 1.3929-0.53449 33.369 11.427 37.624 14.075 1.373 0.85423 0.80478 3.0145-2.6195 9.9586-2.4051 4.8773-4.9941 8.8204-5.7534 8.7626-0.75927-0.05784-4.3805-1.5431-8.0472-3.3007zm-84-22.682c-6.6-0.9393-14.85-1.7537-18.333-1.8099l-6.3333-0.10204v-20.71l13 0.87877c17.85 1.2066 28.241 2.6029 29.044 3.9029 1.1936 1.9314-2.3697 19.937-3.9063 19.738-0.8092-0.10457-6.8713-0.95865-13.471-1.898z" fill="#07468a"/>
 </g>
</svg>
