<?xml version="1.0" encoding="UTF-8"?>
<!-- Created with Inkscape (http://www.inkscape.org/) -->
<svg width="96" height="96" version="1.1" viewBox="0 0 96 96" xmlns="http://www.w3.org/2000/svg" xmlns:cc="http://creativecommons.org/ns#" xmlns:dc="http://purl.org/dc/elements/1.1/" xmlns:rdf="http://www.w3.org/1999/02/22-rdf-syntax-ns#">
 <metadata>
  <rdf:RDF>
   <cc:Work rdf:about="">
    <dc:format>image/svg+xml</dc:format>
    <dc:type rdf:resource="http://purl.org/dc/dcmitype/StillImage"/>
    <dc:title/>
   </cc:Work>
  </rdf:RDF>
 </metadata>
 <!--<path d="m-0.075594 48.054v-48h96v96h-96z" fill="#fefefe"/>-->
 <path d="m37.424 86.645c-11.741-2.9093-21.007-10.858-25.96-22.271-2.6125-6.0198-2.9644-7.9929-3-16.82-0.036227-8.9755 0.25727-10.645 2.8648-16.291 3.6433-7.89 11.457-15.258 21.067-19.866 6.2292-2.9867 7.8832-3.3428 15.528-3.3428 7.7112 0 9.2736 0.34368 15.816 3.479 9.5138 4.5594 17.108 11.785 20.81 19.799 2.5627 5.5481 2.873 7.306 2.8636 16.222-0.0097 9.2582-0.26151 10.537-3.3939 17.241-3.6892 7.8955-10.794 15.546-17.669 19.025-8.0746 4.0865-19.379 5.1903-28.927 2.8246z" fill="#dddbda"/>
 <path d="m28.424 83.167c-4.907-2.8153-14.5-12.081-14.5-14.005 0-0.53776 0.42997-2.1086 0.95549-3.4909l0.95549-2.5131 6.0246 2.448c3.3136 1.3464 6.5961 2.4399 7.2945 2.4301 0.69843-0.0099 2.714-2.2268 4.4789-4.9265l3.2091-4.9086-2.295-6.8235c-2.2733-6.7589-2.3452-6.8417-7.6055-8.7514l-5.3105-1.9279-2.6036 2.9294c-1.432 1.6112-3.5755 4.2726-4.7635 5.9144-2.1347 2.95-2.1845 2.9628-4.25 1.0935-3.8061-3.4444-2.0024-14.6 3.8529-23.831 2.2928-3.6146 3.6158-4.75 5.535-4.75 2.3117 0 2.522 0.36481 2.522 4.375 0 9.0914 0.71166 10.432 6.508 12.259l5.263 1.659 12.323-9.4824-0.59416-11.2-5.8411-1.7298c-3.2126-0.95138-6.0583-1.947-6.3237-2.2124-0.26543-0.26543 0.22266-1.8464 1.0846-3.5133 1.2863-2.4875 2.3917-3.1543 6.1677-3.7206 5.568-0.83497 18.203-0.044204 19.465 1.2182 0.50031 0.50031 1.1797 2.2597 1.5097 3.9099 0.58821 2.9411 0.48509 3.0301-5.2312 4.5149l-5.8313 1.5147-0.59416 11.218 12.28 9.4496 11.814-3.5769v-7.3417c0-7.1815 0.05501-7.3417 2.522-7.3417 4.5672 0 11.478 13.864 11.478 23.027 0 3.1766-2.2617 6.9735-4.1539 6.9735-0.27302 0-2.2626-2.4653-4.4213-5.4784s-4.5999-5.4637-5.4249-5.4456-3.4841 0.79585-5.9092 1.7284c-4.1695 1.6034-4.5342 2.0665-6.7091 8.5191l-2.2999 6.8235 3.2091 4.9086c1.765 2.6997 3.694 4.9167 4.2867 4.9265 0.59268 0.0099 3.9059-1.1313 7.3628-2.5359 3.4568-1.4046 6.4069-2.4171 6.5556-2.25 0.14873 0.16714 0.58378 1.7666 0.96678 3.5543 0.64199 2.9966 0.24116 3.7037-5.1332 9.0551-7.2516 7.2206-14.389 10.944-17.905 9.3418-3.1809-1.4493-3.0816-2.1879 1.1518-8.5638l3.5759-5.3857-7.435-11.198h-15.434l-7.2478 10.916 3.673 6.166c3.5254 5.9181 3.5974 6.2213 1.7912 7.542-2.698 1.9729-4.3661 1.7207-9.9996-1.5114z" fill="#bbc4c7"/>
 <path d="m30.312 84.017c-9.0323-4.471-16.887-13.122-15.811-17.412 0.79024-3.1485 1.4972-3.1572 9.2649-0.11307l6.2207 2.4379 7.1435-10.759-2.4091-7.2273c-2.1717-6.5151-2.7484-7.3443-5.8528-8.4156-7.8078-2.6942-7.3913-2.7626-10.747 1.7649-6.5511 8.8381-5.9004 8.339-8.1806 6.2755-2.4552-2.2219-2.581-6.2189-0.42765-13.583 2.3103-7.9007 7.0265-14.932 10.016-14.932 2.3108 0 2.3958 0.26117 2.3958 7.3641v7.3641l4.7198 1.8025c2.5959 0.99139 5.2457 1.8025 5.8884 1.8025 0.64269 0 3.9194-1.9875 7.2815-4.4167l6.113-4.4167-0.50268-11.926-5.9314-1.8019c-3.2623-0.99105-6.0916-1.9621-6.2874-2.1579-0.19582-0.19582 0.18414-1.5416 0.84435-2.9906 1.593-3.4963 7.2493-4.9806 16.693-4.3805 7.8147 0.49656 9.9305 1.6537 10.4 5.6873 0.24957 2.1457-0.34756 2.6077-5.2182 4.038l-5.5 1.615-0.26191 5.9581-0.26191 5.9581 13.114 9.3476 10.41-3.5323 0.29206-7.6577c0.27811-7.2919 0.4045-7.6577 2.6458-7.6577 4.3261 0 11.562 14.724 11.562 23.527 0 2.7553-3.3254 7.6405-4.3456 6.384-0.18333-0.2258-2.2344-2.9646-4.5579-6.0862-4.1116-5.5239-4.3098-5.6486-7.4105-4.6642-8.2258 2.6115-8.2157 2.602-10.589 9.9709l-2.2671 7.0392 7.1271 10.734 14.123-5.8239 1.0157 2.6714c1.3247 3.4841-0.12824 6.1929-6.2958 11.738-4.1866 3.7641-12.422 8.5667-14.539 8.4782-0.41849-0.01749-1.5974-0.66544-2.6198-1.4399-1.7783-1.347-1.6978-1.6733 1.8555-7.5226l3.7144-6.1145-7.2313-10.891h-15.959l-7.2313 10.891 3.7144 6.1145c3.5533 5.8493 3.6337 6.1756 1.8555 7.5226-2.4686 1.8699-3.1489 1.8216-7.9717-0.5657z" fill="#b9bbbc"/>
 <path d="m29.924 83.848c-5.8744-2.8785-16.412-13.278-15.6-15.395 0.32973-0.85926 0.5995-2.2005 0.5995-2.9805 0-2.0105 1.5321-1.788 9.7579 1.4172 6.901 2.689 7.4495 3.1437 11.156 9.2463 3.5762 5.8883 3.7691 6.5627 2.3371 8.1683-2.007 2.2502-2.8185 2.2053-8.2509-0.45666zm27.647 0.73924c-1.7658-1.3377-1.6539-1.7253 2.3764-8.2293 4.0682-6.5652 4.5049-6.93 11.453-9.5644 8.239-3.124 9.5238-3.3021 9.5238-1.3207 0 0.78002 0.24565 2.0584 0.5459 2.8408 0.86984 2.2668-7.8219 11.076-14.373 14.568-6.7362 3.5904-6.9797 3.634-9.5257 1.7053zm-19.933-25.248c-0.91675-1.6122-5.9067-17.42-5.5676-17.637 0.19428-0.12458 3.8748-2.8324 8.1789-6.0173l7.8256-5.7908 7.6744 5.7834c4.2209 3.1809 7.8338 5.8891 8.0286 6.0182 0.19479 0.12914-0.96676 4.2004-2.5812 9.0473l-2.9354 8.8125-10.089 0.2841c-5.5488 0.15625-10.289-0.06875-10.535-0.5zm-28.201-9.2691c-2.635-2.9117-1.2367-11.467 3.3274-20.358 3.0562-5.9536 4.1349-7.2101 6.4164-7.4733l2.7426-0.31642v17.285l-4.5249 5.8804c-5.5707 7.2396-5.7931 7.3788-7.9615 4.9827zm69.632-4.1548-5.0782-6.3602-0.03386-8.8164-0.03386-8.8164 2.7426 0.31642c2.2815 0.26322 3.3602 1.5196 6.4164 7.4733 4.7641 9.2807 6.0134 17.615 3.0801 20.548l-2.0151 2.0151zm-39.396-28.106c-3.7125-1.1227-6.75-2.4014-6.75-2.8417s1.086-2.0631 2.4134-3.6063c2.3467-2.7282 2.6914-2.8058 12.464-2.8058 10.838 0 12.796 0.79087 13.34 5.3869 0.25284 2.1345-0.38642 2.5707-6.2182 4.2422-7.6299 2.1869-6.7012 2.2098-15.25-0.37539z" fill="#98a4aa"/>
 <path d="m29.539 83.42c-7.1512-3.7201-14.614-11.512-14.614-15.259 0-1.6437 0.38319-3.2254 0.85153-3.5149s4.1795 0.75196 8.2469 2.3142c7.0364 2.7026 7.6004 3.1605 11.618 9.4316l4.2231 6.5911-2.1925 1.5357c-2.7072 1.8962-2.259 1.9568-8.1333-1.0991zm28.567 1.0492c-2.1179-1.4834-2.1144-1.4967 2.0986-8.0644 3.9796-6.2039 4.6369-6.7439 11.539-9.4805 4.0256-1.5961 7.7381-2.6431 8.25-2.3267 1.7547 1.0845 0.93008 5.7692-1.5993 9.0854-2.8044 3.6768-9.6987 8.7337-14.83 10.878-2.8903 1.2076-3.6219 1.1954-5.4589-0.09134zm-22.994-33.335-2.9917-8.9202 15.805-12.103 15.805 12.103-5.9834 17.84h-19.643zm-25.673-2.0645c-1.595-1.7625-1.6686-2.6196-0.65737-7.6549 1.1549-5.7506 4.8017-14.346 7.5107-17.701 1.0015-1.2406 2.162-1.6261 3.5594-1.1826 1.8683 0.59298 2.0734 1.4427 2.0734 8.5894 0 7.9153-0.0094 7.9433-4.6605 13.933-2.5633 3.3007-4.9685 6.0013-5.345 6.0013s-1.4928-0.89311-2.4807-1.9847zm69.194-4.1631c-4.6809-6.1125-4.7079-6.1924-4.7079-13.933 0-6.9985 0.20944-7.8513 2.0734-8.443 1.3974-0.44352 2.5579-0.05794 3.5594 1.1826 2.7089 3.3556 6.3558 11.95 7.5107 17.701 1.0112 5.0354 0.93764 5.8925-0.65737 7.6549-0.98786 1.0916-2.0828 1.9847-2.4332 1.9847s-2.7557-2.7665-5.345-6.1477zm-38.85-27.235-6.6419-2.1827 1.4172-2.7048c1.7088-3.2614 4.7684-4.2295 13.367-4.2295 8.9797 0 11.596 0.90178 12.822 4.4195l1.0222 2.9322-6.8275 2.0738c-7.9811 2.4242-6.7684 2.4489-15.159-0.30851z" fill="#748790"/>
 <path d="m29.936 83.373c-6.4033-3.1909-15.017-11.586-14.996-14.616 0.03125-4.4952 1.1139-4.6823 9.147-1.5808 7.2953 2.8167 7.8144 3.2316 11.243 8.9874 1.9771 3.3189 3.5946 6.3439 3.5946 6.7221s-0.85739 1.2232-1.9053 1.8777c-1.5688 0.97972-2.8199 0.73412-7.0834-1.3904zm28.693 1.2071c-2.3526-1.7203-2.2255-2.2313 2.2184-8.9153 3.5861-5.3938 4.5296-6.1286 11.203-8.7251 7.6391-2.9722 8.8259-2.7544 8.8593 1.6252 0.01783 2.3404-6.9175 9.8158-11.985 12.918-6.2425 3.8216-8.4127 4.4745-10.296 3.0973zm-23.526-33.473-3.001-8.9479 7.4704-5.5521c4.1087-3.0536 7.9082-5.5521 8.4432-5.5521s4.2936 2.4994 8.3522 5.5541l7.3793 5.5541-6.0006 17.892h-19.643zm-25.569-1.932c-1.5066-1.6648-1.6061-2.682-0.72725-7.4362 1.976-10.689 7.3922-19.948 11.102-18.978 1.8027 0.47143 2.0171 1.3467 2.0171 8.2361 0 7.6299-0.04682 7.7691-4.5868 13.633-2.5227 3.2586-4.9181 6.0482-5.323 6.1991-0.40491 0.15088-1.5216-0.59355-2.4816-1.6543zm69.084-4.5114c-4.6042-6.2706-4.6929-6.533-4.6929-13.883 0-6.6722 0.22073-7.5497 2.0171-8.0195 3.7093-0.97001 9.1255 8.289 11.102 18.978 0.8755 4.736 0.7767 5.7743-0.70523 7.4119-0.94785 1.0474-2.0168 1.9043-2.3755 1.9043-0.35868 0-2.7639-2.8761-5.345-6.3914zm-37.943-26.914c-3.865-1.1822-6.75-2.6268-6.75-3.3799 0-5.2995 12.797-7.7814 24.166-4.687 0.91653 0.24945 2.1139 1.7371 2.6608 3.3059 0.99031 2.8408 0.96954 2.8594-5.1137 4.5662-3.3595 0.94261-6.5818 1.8366-7.1608 1.9866-0.57897 0.15001-4.0902-0.65637-7.8027-1.792z" fill="#647a85"/>
 <path d="m29.973 83.296c-5.8029-2.99-15.057-12.181-15.034-14.931 0.03374-3.9882 1.2904-4.1464 8.9897-1.1317 7.0435 2.7579 7.7353 3.3082 11.25 8.9496 2.0598 3.306 3.745 6.3215 3.745 6.7011 0 0.37955-0.85564 1.2244-1.9014 1.8775-1.5678 0.97911-2.8047 0.72204-7.0495-1.4652zm28.079 0.85917c-1.6152-1.0232-1.6293-0.98193 2.859-8.3711 3.2732-5.3886 3.948-5.9168 11-8.6102 7.6942-2.9386 8.9637-2.7759 8.9976 1.1533 0.02247 2.6004-7.6793 10.511-13.464 13.829-5.2821 3.0299-7.1404 3.4253-9.3923 1.9988zm-22.623-33.084c-1.5791-4.9411-2.6762-9.1434-2.4381-9.3386 3.5894-2.9422 14.408-10.678 14.933-10.678s11.344 7.7354 14.933 10.678c0.2381 0.19518-0.85905 4.3976-2.4381 9.3386l-2.871 8.9837h-19.248zm-25.62-1.5592c-4.0839-4.0839 3.6471-25.586 9.4468-26.274l2.6675-0.31642v7.7104c0 7.646-0.03965 7.7631-4.75 14.021-2.6125 3.4707-4.9911 6.3309-5.2857 6.356-0.29464 0.0251-1.23-0.64867-2.0786-1.4973zm68.864-4.9668c-4.6859-6.3408-4.75-6.5301-4.75-14.025v-7.5978l2.75 0.31642c5.8479 0.67287 13.511 22.46 9.2551 26.312-0.91443 0.82755-1.8522 1.4861-2.0839 1.4635-0.23169-0.0226-2.5588-2.9335-5.1713-6.4686zm-39.5-27.251c-5.4763-1.5941-6.1097-2.5208-3.8033-5.5636 1.7701-2.3353 10.651-3.5987 18.146-2.5816 6.4635 0.87711 6.0495 0.63371 6.9101 4.0628 0.6299 2.5097 0.3704 2.7383-4.8226 4.248-6.5298 1.8983-9.4416 1.8689-16.431-0.16556z" fill="#536d79"/>
</svg>
