<?xml version="1.0" encoding="UTF-8"?>
<!-- Created with Inkscape (http://www.inkscape.org/) -->
<svg width="96" height="96" version="1.1" viewBox="0 0 96 96" xmlns="http://www.w3.org/2000/svg" xmlns:cc="http://creativecommons.org/ns#" xmlns:dc="http://purl.org/dc/elements/1.1/" xmlns:rdf="http://www.w3.org/1999/02/22-rdf-syntax-ns#">
 <metadata>
  <rdf:RDF>
   <cc:Work rdf:about="">
    <dc:format>image/svg+xml</dc:format>
    <dc:type rdf:resource="http://purl.org/dc/dcmitype/StillImage"/>
    <dc:title/>
   </cc:Work>
  </rdf:RDF>
 </metadata>
 <!--<path d="m0.40678 48v-48h96v96h-96z" fill="#fcfcfb"/>-->
 <path d="m15.119 84.379c-0.3765-0.3765 1.0773-2.596 3.2307-4.9321 4.5128-4.8958 6.5926-8.7077 11.029-20.214 3.7841-9.8148 6.8969-13.818 12.668-16.292 4.7864-2.0517 6.8309-4.5845 16.351-20.256l6.4908-10.684h9.8266c9.6258 0 9.8125 0.04431 9.1384 2.1683-0.37851 1.1926-4.8197 10.543-9.8692 20.779-5.2403 10.623-9.9167 21.592-10.895 25.556-0.94267 3.82-2.8218 8.6194-4.1758 10.665-4.4362 6.7035-14.403 11.029-28.326 12.293-3.6742 0.33348-8.5036 0.83014-10.732 1.1037-2.2285 0.27354-4.3598 0.1893-4.7363-0.1872z" fill="#fcbc0c"/>
 <path d="m53.773 52.082c-5.9478-3.6268-7.8384-8.5358-4.902-12.728 0.80558-1.1501 1.1806-2.3753 0.83333-2.7225-0.34725-0.34725-0.10636-0.63136 0.5353-0.63136 0.64167 0 1.1667-0.45481 1.1667-1.0107 0-1.1404 10.495-18.545 12.808-21.239 1.2327-1.4363 3.189-1.75 10.914-1.75 9.3018 0 9.4042 0.02643 8.7122 2.25-1.0257 3.2959-10.985 23.033-16.148 32-4.0849 7.0954-4.7289 7.7497-7.6242 7.7463-1.7394-0.0021-4.5725-0.8635-6.2958-1.9143z" fill="#e7235d"/>
</svg>
