<?xml version="1.0" encoding="UTF-8"?>
<!-- Created with Inkscape (http://www.inkscape.org/) -->
<svg width="2e3" height="2e3" version="1.1" viewBox="0 0 2e3 2e3" xmlns="http://www.w3.org/2000/svg" xmlns:cc="http://creativecommons.org/ns#" xmlns:dc="http://purl.org/dc/elements/1.1/" xmlns:rdf="http://www.w3.org/1999/02/22-rdf-syntax-ns#">
 <metadata>
  <rdf:RDF>
   <cc:Work rdf:about="">
    <dc:format>image/svg+xml</dc:format>
    <dc:type rdf:resource="http://purl.org/dc/dcmitype/StillImage"/>
    <dc:title/>
   </cc:Work>
  </rdf:RDF>
 </metadata>
 <!--<path d="m-4.4928e-6 1003.6v-1e3h2e3v2e3h-2e3z" fill="#fefefe"/> -->
 <path d="m942 1999.6c-174.61-9.0251-297.42-49.495-366.05-120.62-28.213-29.24-45.761-61.445-54.131-99.341l-2.319-10.5-0.2996-237.5c-0.31064-246.25-0.11519-261 3.8145-288 10.144-69.688 43.813-124.89 98.485-161.47 37.303-24.96 80.159-40.216 135.5-48.237 10.42-1.5102 36.811-1.7252 281-2.289 246.27-0.5687 270.53-0.769 281.5-2.3235 37.223-5.277 63.075-12.705 91-26.148 77.116-37.122 124.61-110.02 139.78-214.53 2.0398-14.056 2.1149-18.562 2.4551-147.29l0.3509-132.79 194.42 0.68297 12.424 2.743c63.416 14.001 115.74 50.123 156.43 107.99 39.158 55.692 64.179 124.68 80.39 221.67l2.758 16.5v284l-3.1741 17.5c-11.594 63.922-24.984 107.49-46.43 151.08-9.4116 19.128-17.581 33.244-27.638 47.751-48.712 70.27-117.2 112.64-198.23 122.63-11.008 1.3577-54.067 1.538-367.25 1.538h-354.78v68h487l0.2172 117.25c0.2425 130.83 0.2789 128.03-1.8156 139.62-10.602 58.697-62.456 111.09-141.4 142.88-66.39 26.729-137.86 40.825-245 48.318-19.585 1.3699-137.02 2.0304-159 0.8943zm359.45-155.91c30.659-8.0057 55.436-33.531 62.587-64.476 1.9112-8.2709 2.1526-11.54 1.7238-23.349-0.4118-11.342-0.9766-15.211-3.2451-22.231-4.8542-15.023-10.577-24.537-21.244-35.32-17.103-17.287-37.326-25.698-61.708-25.663-13.439 0.019-22.013 1.5028-32.202 5.5715-11.314 4.5181-20.27 10.435-29.379 19.411-42.488 41.868-31.043 112.78 22.557 139.77 6.5005 3.2732 17.338 6.831 25.124 8.2477 7.7856 1.4166 26.846 0.3704 35.786-1.9643zm-1039.9-349.16c-74.569-10.638-138.41-56.229-184-131.4-8.3516-13.771-23.812-45.176-30.029-61-33.194-84.48-49.098-191.91-47.152-318.5 0.77722-50.54 2.9592-80.816 8.7515-121.43 16.021-112.32 52.305-197.44 109.25-256.29 44.552-46.039 100.22-74.022 163.75-82.311 6.1568-0.80332 109.24-1.169 366-1.2982l357.43-0.17995 0.2631-34.25 0.2632-34.25h-487.03l-0.25-115.75c-0.1375-63.662-0.16409-119.69-0.0591-124.51 0.35646-16.352 4.6531-33.24 12.888-50.658 40.857-86.419 164.65-140.97 351.92-155.07 67.079-5.0503 152.9-5.2387 215-0.47187 117.62 9.0282 210.41 33.699 276 73.382 62.922 38.067 101.32 89.343 112.01 149.57 1.436 8.0899 1.5895 33.774 1.5181 254-0.051 157.28-0.4438 249.12-1.0971 256.5-3.2288 36.49-11.197 66.466-25.387 95.5-11.348 23.219-21.788 37.921-40.372 56.854-18.663 19.014-39.484 33.813-65.572 46.61-24.708 12.12-48.305 20.047-77.236 25.947-34.06 6.9461-10.306 6.4008-308.36 7.0787-269.47 0.61285-269.5 0.61319-284.5 2.7782-37.044 5.3474-63.151 13.046-91.202 26.895-77.556 38.29-127.92 120.32-138.28 225.19-0.63747 6.4579-1.0222 58.872-1.0222 139.25v128.89l-93.75-0.1219c-51.562-0.067-96.45-0.5072-99.75-0.9779zm478.97-1162.9c29.737-4.2975 55.467-23.587 67.659-50.723 9.8961-22.026 9.8558-49.878-0.10407-71.844-10.667-23.526-32.096-41.59-57.575-48.533-11.351-3.0934-32.54-3.0901-43.946 7e-3 -30.396 8.2531-52.824 30.205-62.163 60.844-2.3983 7.8681-2.6813 10.38-2.6813 23.797s0.28303 15.929 2.6813 23.797c12.999 42.647 53.214 68.859 96.129 62.657z" fill="#fee9a4"/>
 <path d="m954.5 1999.6c-166.69-7.3153-283.77-40.75-358.5-102.37-33.813-27.883-59.701-66.151-70.027-103.52-6.5139-23.571-6.0868-4.1556-5.9957-272.61 0.0531-156.55 0.44821-248.3 1.1024-256 5.4162-63.744 25.943-112.53 63.895-151.84 41.827-43.332 103.59-70.943 177.02-79.132 11.658-1.3001 47.546-1.5081 263-1.5242 150.2-0.011 256.96-0.4108 268.23-1.0038 95.784-5.0374 165.38-41.548 210.71-110.53 23.215-35.333 38.075-76.547 46.318-128.46 2.1007-13.231 2.15-16.194 2.4761-148.75l0.3327-135.25 87.716 8.4e-4c52.833 5e-4 92.09 0.41332 98.716 1.0381 30.601 2.8855 62.558 13.413 90.755 29.897 87.713 51.278 144.77 156.89 166.7 308.56l3.0368 21v131.2c0 125.14-0.087 131.81-1.9573 144.5-22.756 154.42-85.338 259.52-183.85 308.78-28.475 14.235-57.012 22.848-89.684 27.07-5.3849 0.6957-124.78 1.0113-365.25 0.9655l-357.25-0.068v69.063h485.71l0.7077 121.75c0.4953 85.226 0.3845 124-0.3695 129.25-9.0448 62.981-61.323 116.41-147.06 150.29-65.568 25.913-143.26 40.523-248.49 46.73-23.704 1.3982-113.89 2.0394-138 0.9812zm342.63-154.53c15.73-3.309 29.879-10.803 42.019-22.255 50.133-47.293 28.876-130.2-38.059-148.45-10.339-2.8183-32.553-3.0287-42.093-0.3987-26.441 7.2891-46.779 23.397-58.245 46.13-5.68 11.262-7.9888 21.045-8.4961 36-0.4046 11.93-0.1591 15.331 1.6603 23 2.6253 11.066 10.23 26.759 17.078 35.242 12.198 15.109 30.856 26.531 50.199 30.731 8.6413 1.8762 27.016 1.8758 35.937-7e-4zm-1035.6-350.57c-74.485-10.626-138.46-56.315-184-131.4-8.3516-13.771-23.812-45.176-30.029-61-33.194-84.48-49.098-191.91-47.152-318.5 0.77722-50.54 2.9592-80.816 8.7515-121.43 16.021-112.32 52.305-197.44 109.25-256.29 44.552-46.039 100.22-74.022 163.75-82.311 6.1568-0.80332 109.24-1.169 366-1.2982l357.43-0.17995 0.2631-34.25 0.2632-34.25h-487.03l-0.25-115.75c-0.1375-63.662-0.16409-119.69-0.0591-124.51 0.35646-16.352 4.6531-33.24 12.888-50.658 40.857-86.419 164.65-140.97 351.92-155.07 67.079-5.0503 152.9-5.2387 215-0.47187 117.62 9.0282 210.41 33.699 276 73.382 52.391 31.696 87.959 72.723 104.41 120.43 4.507 13.071 7.7479 27.415 8.8424 39.137 0.4109 4.4 0.4901 119.38 0.1762 255.5-0.6139 266.19-0.3042 250.3-5.3982 277.15-7.3684 38.843-23.665 75.461-45.997 103.35-36.942 46.135-96.178 78.584-166.17 91.026-28.92 5.1406-10.436 4.8044-300.36 5.4634l-269.5 0.6125-15 2.1662c-67.072 9.686-114.28 32.161-154.04 73.336-38.645 40.022-62.529 92.804-73.711 162.9-2.1143 13.254-2.1597 15.967-2.4863 148.75l-0.33273 135.25-93.716-0.1219c-51.544-0.0671-96.416-0.5072-99.716-0.9779zm478.97-1162.9c29.737-4.2975 55.467-23.587 67.659-50.723 9.8961-22.026 9.8558-49.878-0.10407-71.844-10.667-23.526-32.096-41.59-57.575-48.533-11.351-3.0934-32.54-3.0901-43.946 7e-3 -30.396 8.2531-52.824 30.205-62.163 60.844-2.3983 7.8681-2.6813 10.38-2.6813 23.797s0.28303 15.929 2.6813 23.797c12.999 42.647 53.214 68.859 96.129 62.657z" fill="#fed94b"/>
 <path d="m960.61 1999.6c-129.76-5.0585-226.79-25.17-301.74-62.54-67.885-33.849-111.69-79.894-130.77-137.45-1.7321-5.225-3.3995-11.075-3.7053-13-0.55215-3.4751-0.0352-4.0435 72.777-80.02 62.091-64.789 280.57-292.84 575.27-600.48l69.932-73.003 29.568-0.6244c30.715-0.6487 41.978-1.5383 63.068-4.9816 84.022-13.718 146.86-58.556 183.44-130.89 24.809-49.061 35.498-99.328 35.546-167.16l0.015-21.661 94.228-98.339c63.094-65.847 94.988-98.444 96.528-98.658 3.5738-0.49594 23.254 3.554 35.907 7.3892 36.225 10.98 68.858 30.6 98.522 59.232 57.151 55.164 95.985 140.71 114.73 252.73 6.3708 38.067 6.0821 29.965 6.0821 170.7v128.82l-2.5446 17.218c-16.676 112.84-55.412 199.76-114.65 257.28-14.074 13.665-25.174 22.78-38.873 31.922-35.475 23.674-74.738 38.378-117.54 44.018-10.605 1.3975-50.283 1.5604-368.14 1.5117l-356.25-0.054v70.04h485.85l0.3572 121.25c0.3946 133.99 0.4512 132.51-5.8097 151.63-15.901 48.574-58.069 89.671-122.07 118.97-67.821 31.047-157.3 49.1-273.33 55.146-27.533 1.4346-100.41 2.009-126.39 0.9962zm339.39-155.08c39.007-9.0645 66.954-44.723 66.992-85.477 0.033-35.31-21.961-67.767-54.992-81.155-12.201-4.9451-17.131-5.7852-33.5-5.7098-13.376 0.062-15.974 0.3657-24 2.8089-31.007 9.4392-53.419 33.365-61.139 65.269-2.4592 10.162-2.2489 28.506 0.4536 39.563 4.183 17.114 12.329 31.014 25.357 43.27 22.087 20.778 50.836 28.401 80.828 21.431zm-1038.5-350.01c-74.485-10.626-138.46-56.315-184-131.4-8.3516-13.771-23.812-45.176-30.029-61-33.194-84.48-49.098-191.91-47.152-318.5 0.77722-50.54 2.9592-80.816 8.7515-121.43 16.021-112.32 52.305-197.44 109.25-256.29 44.552-46.039 100.22-74.022 163.75-82.311 6.1568-0.80332 109.24-1.169 366-1.2982l357.43-0.17995 0.2631-34.25 0.2632-34.25h-487.03l-0.25-115.75c-0.1375-63.662-0.16409-119.69-0.0591-124.51 0.35646-16.352 4.6531-33.24 12.888-50.658 40.857-86.419 164.65-140.97 351.92-155.07 67.079-5.0503 152.9-5.2387 215-0.47187 117.62 9.0282 210.41 33.699 276 73.382 52.391 31.696 87.959 72.723 104.41 120.43 4.507 13.071 7.7479 27.415 8.8424 39.137 0.4109 4.4 0.4901 119.38 0.1762 255.5-0.6139 266.19-0.3042 250.3-5.3982 277.15-7.3684 38.843-23.665 75.461-45.997 103.35-36.942 46.135-96.178 78.584-166.17 91.026-28.92 5.1406-10.436 4.8044-300.36 5.4634l-269.5 0.6125-15 2.1662c-67.072 9.686-114.28 32.161-154.04 73.336-38.645 40.022-62.529 92.804-73.711 162.9-2.1143 13.254-2.1597 15.967-2.4863 148.75l-0.33273 135.25-93.716-0.1219c-51.544-0.0671-96.416-0.5072-99.716-0.9779zm478.97-1162.9c29.737-4.2975 55.467-23.587 67.659-50.723 9.8961-22.026 9.8558-49.878-0.10407-71.844-10.667-23.526-32.096-41.59-57.575-48.533-11.351-3.0934-32.54-3.0901-43.946 7e-3 -30.396 8.2531-52.824 30.205-62.163 60.844-2.3983 7.8681-2.6813 10.38-2.6813 23.797s0.28303 15.929 2.6813 23.797c12.999 42.647 53.214 68.859 96.129 62.657z" fill="#fed243"/>
 <path d="m962.5 1999.6c-64.321-2.4821-112.88-7.6757-164.71-17.616l-18.708-3.5882 28.399-29.646c15.619-16.305 107.52-112.22 204.22-213.15l175.82-183.5 300.36-0.5065 0.3047 121.75c0.2291 91.516 0 123.86-0.9086 130.25-1.5694 10.994-4.5101 21.404-9.0304 31.969-27.019 63.148-97.026 110.34-203.76 137.36-53.313 13.496-114.7 21.833-189 25.668-27.481 1.4185-97.387 1.9848-123 0.9964zm338.5-155.09c4.125-1.033 12-4.1018 17.5-6.8195 21.958-10.85 37.837-29.703 45.131-53.585 2.4809-8.1223 2.7532-10.512 2.7914-24.5 0.036-13.244-0.2904-16.658-2.2442-23.458-8.6593-30.138-31.504-52.989-61.72-61.737-6.8261-1.9762-10.164-2.2981-23.458-2.2617-17.629 0.048-23.327 1.2039-36.673 7.4382-31.965 14.931-50.645 44.247-50.669 79.519-0.017 24.558 8.6392 45.704 25.482 62.248 15.524 15.249 30.804 22.458 54.361 25.646 5.6643 0.7665 22.006-0.6124 29.5-2.4893zm-1039.5-350c-74.485-10.626-138.46-56.315-184-131.4-8.3516-13.771-23.812-45.176-30.029-61-33.194-84.48-49.098-191.91-47.152-318.5 0.77722-50.54 2.9592-80.816 8.7515-121.43 16.021-112.32 52.305-197.44 109.25-256.29 44.552-46.039 100.22-74.022 163.75-82.311 6.1568-0.80332 109.24-1.169 366-1.2982l357.43-0.17995 0.2631-34.25 0.2632-34.25h-487.03l-0.25-115.75c-0.1375-63.662-0.16409-119.69-0.0591-124.51 0.35646-16.352 4.6531-33.24 12.888-50.658 40.857-86.419 164.65-140.97 351.92-155.07 67.079-5.0503 152.9-5.2387 215-0.47187 117.62 9.0282 210.41 33.699 276 73.382 52.391 31.696 87.959 72.723 104.41 120.43 4.507 13.071 7.7479 27.415 8.8424 39.137 0.4109 4.4 0.4901 119.38 0.1762 255.5-0.6139 266.19-0.3042 250.3-5.3982 277.15-7.3684 38.843-23.665 75.461-45.997 103.35-36.942 46.135-96.178 78.584-166.17 91.026-28.92 5.1406-10.436 4.8044-300.36 5.4634l-269.5 0.6125-15 2.1662c-67.072 9.686-114.28 32.161-154.04 73.336-38.645 40.022-62.529 92.804-73.711 162.9-2.1143 13.254-2.1597 15.967-2.4863 148.75l-0.33273 135.25-93.716-0.1219c-51.544-0.0671-96.416-0.5072-99.716-0.9779zm478.97-1162.9c29.737-4.2975 55.467-23.587 67.659-50.723 9.8961-22.026 9.8558-49.878-0.10407-71.844-10.667-23.526-32.096-41.59-57.575-48.533-11.351-3.0934-32.54-3.0901-43.946 7e-3 -30.396 8.2531-52.824 30.205-62.163 60.844-2.3983 7.8681-2.6813 10.38-2.6813 23.797s0.28303 15.929 2.6813 23.797c12.999 42.647 53.214 68.859 96.129 62.657zm732.28 1150.3c-119.21-0.1597-216.75-0.5199-216.75-0.8003 0-0.2805 91.933-96.467 204.29-213.75 112.36-117.28 272.9-284.85 356.75-372.38 83.85-87.527 152.87-159.3 153.38-159.5 0.5104-0.19799 1.2476 0.76502 1.6382 2.14s2.7357 9.491 5.2113 18.035c7.9923 27.585 14.597 59.344 19.75 94.964l2.9658 20.501-0.012 129.5-0.012 129.5-2.4843 16.495c-9.469 62.871-25.299 117.02-47.504 162.5-12.564 25.733-24.094 44.442-40.368 65.499-10.241 13.251-36.171 39.38-48.614 48.987-47.584 36.739-102.12 56.657-159.5 58.256-6.6 0.1839-109.54 0.2037-228.75 0.044z" fill="#fecc3b"/>
 <path d="m261.5 1494.5c-74.485-10.626-138.46-56.315-184-131.4-8.3516-13.771-23.812-45.176-30.029-61-33.194-84.48-49.098-191.91-47.152-318.5 0.77722-50.54 2.9592-80.816 8.7515-121.43 16.021-112.32 52.305-197.44 109.25-256.29 44.552-46.039 100.22-74.022 163.75-82.311 6.1568-0.80332 109.24-1.169 366-1.2982l357.43-0.17995 0.2631-34.25 0.2632-34.25h-487.03l-0.25-115.75c-0.1375-63.662-0.16409-119.69-0.0591-124.51 0.35646-16.352 4.6531-33.24 12.888-50.658 40.857-86.419 164.65-140.97 351.92-155.07 67.079-5.0503 152.9-5.2387 215-0.47187 117.62 9.0282 210.41 33.699 276 73.382 52.391 31.696 87.959 72.723 104.41 120.43 4.507 13.071 7.7479 27.415 8.8424 39.137 0.4109 4.4 0.4901 119.38 0.1762 255.5-0.6139 266.19-0.3042 250.3-5.3982 277.15-7.3684 38.843-23.665 75.461-45.997 103.35-36.942 46.135-96.178 78.584-166.17 91.026-28.92 5.1406-10.436 4.8044-300.36 5.4634l-269.5 0.6125-15 2.1662c-67.072 9.686-114.28 32.161-154.04 73.336-38.645 40.022-62.529 92.804-73.711 162.9-2.1143 13.254-2.1597 15.967-2.4863 148.75l-0.33273 135.25-93.716-0.1219c-51.544-0.0671-96.416-0.5072-99.716-0.9779zm478.97-1162.9c29.737-4.2975 55.467-23.587 67.659-50.723 9.8961-22.026 9.8558-49.878-0.10407-71.844-10.667-23.526-32.096-41.59-57.575-48.533-11.351-3.0934-32.54-3.0901-43.946 7e-3 -30.396 8.2531-52.824 30.205-62.163 60.844-2.3983 7.8681-2.6813 10.38-2.6813 23.797s0.28303 15.929 2.6813 23.797c12.999 42.647 53.214 68.859 96.129 62.657z" fill="#6392b9"/>
 <path d="m270 1494.9c-27.221-2.7903-52.472-10.057-77.5-22.303-59.096-28.915-106.59-82.811-139.24-158.02-24.314-56-41.033-127.97-48.201-207.5-6.4797-71.888-5.9063-156.9 1.5006-222.5 13.234-117.21 49.597-210.4 106.26-272.31 45.198-49.391 103.63-79.794 169.49-88.184 10.306-1.313 56.885-1.5035 367.75-1.5035h355.95v-69h-485.76l-0.71185-83.25c-0.39152-45.788-0.54403-102.82-0.33891-126.75 0.40831-47.626 0.56513-49.073 7.3696-68.011 30.09-83.742 137.9-141.46 302.44-161.91 95.737-11.9 221.58-12.719 312.5-2.0338 87.277 10.258 157.06 29.359 212.99 58.302 72.205 37.366 115.28 88.317 130.75 154.65l2.2149 9.5 0.3323 239c0.3376 242.72 0.1167 261.48-3.3633 285.5-11.834 81.7-53.41 141.55-123.66 178.01-29.53 15.326-61.2 25.263-102.76 32.242-12.41 2.084-14.426 2.1037-281 2.7438-280.41 0.67334-272.96 0.5489-302.45 5.0488-84.805 12.938-149.12 58.886-186.12 132.96-13.559 27.146-23.56 57.905-28.937 88.995-5.0022 28.927-4.8151 23.023-5.208 164.25l-0.36933 132.75-90.206-0.16c-49.613-0.0881-91.781-0.3215-93.706-0.5188zm475.97-1163.8c40.938-8.6115 70.035-44.29 70.035-85.877 0-23.597-8.8371-45.315-25.173-61.866-10.352-10.489-21.554-17.286-36.827-22.347-7.9123-2.622-9.6408-2.8194-25-2.856-18.37-0.0438-23.785 0.97988-36.692 6.9368-19.78 9.1288-34.233 23.398-43.302 42.75-5.7486 12.267-7.9914 22.722-7.9914 37.253 0 15.401 2.3593 25.639 8.9876 39 12.115 24.421 33.584 40.989 60.998 47.074 7.8582 1.7443 26.525 1.7085 34.965-0.067z" fill="#3779b0"/>
 <path d="m271.5 1495c-33.951-3.8701-59.777-11.648-86.472-26.041-92.61-49.933-153.37-160.5-174.93-318.32-6.6335-48.559-9.128-89.556-9.1261-149.99 0.0013018-41.982 0.77016-62.053 3.6092-94.219l1.5631-17.71 157.19-156.79c86.454-86.235 169.12-168.6 183.7-183.04l26.514-26.25h632.45v-69h-486v-77.598l120.35-119.9 0.91628 3.5c3.0501 11.651 6.2035 20.748 9.1551 26.41 11.757 22.557 34.573 39.829 59.553 45.083 9.0642 1.9067 27.437 1.9149 36.399 0.0162 34.327-7.2728 60.868-33.814 68.141-68.141 1.9176-9.0509 1.8802-26.535-0.0773-36.161-3.0566-15.031-10.763-29.831-21.747-41.764-11.679-12.687-28.607-22.362-45.22-25.845-3.6179-0.75837-6.7594-1.5603-6.9812-1.7821-0.22176-0.22177 33.216-33.989 74.306-75.038l74.71-74.634 16.5-1.1596c25.107-1.7645 124.71-2.4429 154.92-1.0552 107.68 4.9463 195.71 21.82 264.13 50.627 89.626 37.734 145.41 96.807 160.16 169.61l2.2962 11.334v248.5c0 230.46-0.1269 249.54-1.7489 262.87-9.5538 78.493-41.995 134.42-100.94 174.02-36.847 24.754-85.334 41.442-138.3 47.598-11.255 1.3082-46.457 1.5115-263 1.5194-249.06 9e-3 -274.47 0.30746-299.11 3.5139-128.22 16.684-207.32 100.23-227.67 240.48-2.0397 14.056-2.1148 18.563-2.455 147.25l-0.35089 132.75-89.709-0.1498c-49.34-0.082-91.059-0.3038-92.709-0.4918z" fill="#3675aa"/>
 <path d="m267 1494.5c-17.25-1.6583-38.55-6.9386-56.846-14.092-64.869-25.363-118.79-81.271-153.78-159.43-8.0296-17.941-17.484-43.174-22.438-59.887l-3.2608-11 199.91-199.31c109.95-109.62 274.22-273.31 365.04-363.75l165.12-164.44h245.25v-69h-176.07l185.32-184.75c101.93-101.61 197.11-196.43 211.51-210.7l26.183-25.946 5.2782 1.3501c10.431 2.6682 31.163 9.1701 43.602 13.674 103.5 37.481 167.41 99.694 183.38 178.53l2.2962 11.334v248.5c0 273.42 0.3183 258.09-6.0077 289.5-18.828 93.497-80.478 156.79-179.59 184.37-12.535 3.4881-26.048 6.3521-44.182 9.3642l-13.225 2.1967-268.5 0.58392c-294.23 0.63989-276.85 0.27646-310.35 6.4872-86.856 16.103-150.53 66.903-184.93 147.54-9.1025 21.338-17.583 50.786-21.66 75.208-4.456 26.694-4.3884 24.398-4.7758 162.01l-0.37375 132.75-89.209-0.1363c-49.065-0.0749-93.034-0.5039-97.709-0.9534z" fill="#3671a3"/>
 <path d="m271.5 1494.9c-7.1633-0.496-28.909-4.1936-33.008-5.6127l-3.4733-1.2025 218.98-218.97v226.5l-88.75-0.1802c-48.812-0.099-91-0.3361-93.75-0.5264zm663.17-704.54c100.01-99.684 265.03-264.21 366.72-365.62 147.76-147.34 185.07-184.05 185.79-182.78 1.4387 2.5709 0.411 492-1.0576 503.64-4.7569 37.705-12.04 63.924-25.138 90.5-17.57 35.651-41.404 62.683-75.672 85.827-37.458 25.299-86.419 42.174-139.81 48.189-11.056 1.2456-48.856 1.466-252.83 1.4742l-239.83 0.01z" fill="#356c9b"/>
</svg>
