<?xml version="1.0" encoding="UTF-8"?>
<!-- Created with Inkscape (http://www.inkscape.org/) -->
<svg width="96" height="96" version="1.1" viewBox="0 0 96 96" xmlns="http://www.w3.org/2000/svg" xmlns:cc="http://creativecommons.org/ns#" xmlns:dc="http://purl.org/dc/elements/1.1/" xmlns:rdf="http://www.w3.org/1999/02/22-rdf-syntax-ns#">
 <metadata>
  <rdf:RDF>
   <cc:Work rdf:about="">
    <dc:format>image/svg+xml</dc:format>
    <dc:type rdf:resource="http://purl.org/dc/dcmitype/StillImage"/>
    <dc:title/>
   </cc:Work>
  </rdf:RDF>
 </metadata>
 <!--<path d="m0.40678 48.814v-48h96v96h-96z" fill="#fdfdfe"/>-->
 <path d="m52.204 80.754-0.29772-6.0591-3.7694 5.0591c-2.3642 3.1731-4.5245 5.0591-5.7949 5.0591-1.6954 0-1.0329-1.3041 4.0643-8 5.1307-6.7399 5.7678-8 4.0449-8-1.3783 0-2.0449-0.65202-2.0449-2 0-1.3333 0.66667-2 2-2s2-0.66667 2-2c0-1.1-0.9-2.9-2-4s-2-2.9144-2-4.0319c0-1.8936-0.18511-1.9349-2.7184-0.6076-2.3757 1.2448-2.8572 1.2346-3.819-0.08074-0.96458-1.3191-1.6325-1.2337-5.4064 0.6916-2.3682 1.2082-5.0815 1.9938-6.0295 1.7459-1.8283-0.47812-8.6978 3.1693-8.7971 4.671-0.06245 0.94414-2.2346 2.5709-3.467 2.5965-0.40559 0.0084-2.3288-3.1447-4.2738-7.0069-2.8757-5.7104-3.2606-7.1281-2.0605-7.5886 0.81174-0.31149 1.932-0.28446 2.4895 0.06008 1.3613 0.84132 8.6835-2.9679 9.4264-4.9038 0.32499-0.84691 2.6181-2.5247 5.0957-3.7285 3.6512-1.7739 4.4058-2.5832 3.9823-4.2708-0.46018-1.8335 1.7521-3.2532 18.528-11.89 10.478-5.3942 19.05-10.4 19.05-11.125 0-1.1045 3.0232-3.1463 3.413-2.3049 0.06969 0.15045 1.7765 2.7485 3.793 5.7735s4.7755 8.5687 6.1312 12.319c2.0565 5.6895 2.2257 6.9112 1.0208 7.3735-0.7943 0.3048-1.7022 0.29614-2.0176-0.01925-0.31539-0.31539-5.471 1.8828-11.457 4.8848l-10.883 5.4583v4.9916c0 3.6583-0.53423 5.5259-2 6.9916-1.1 1.1-2 2.9-2 4 0 1.3333 0.66667 2 2 2s2 0.66667 2 2c0 1.348-0.66667 2-2.0449 2-1.7228 0-1.0857 1.2601 4.0449 8 5.0972 6.6959 5.7597 8 4.0643 8-1.2704 0-3.4308-1.886-5.7949-5.0591l-3.7694-5.0591-0.29772 6.0591c-0.25487 5.187-0.57184 6.0591-2.2023 6.0591s-1.9474-0.87208-2.2023-6.0591zm3.7561-25.028c1.0305-1.6674-1.2872-3.5795-2.6667-2.2-1.1539 1.1539-0.43172 3.2871 1.1129 3.2871 0.48508 0 1.1843-0.48921 1.5539-1.0871z" fill="#2595ee"/>
 <path d="m52.204 80.754-0.29772-6.0591-3.7694 5.0591c-2.3642 3.1731-4.5245 5.0591-5.7949 5.0591-1.6954 0-1.0329-1.3041 4.0643-8 5.1307-6.7399 5.7678-8 4.0449-8-1.3783 0-2.0449-0.65202-2.0449-2 0-1.3333 0.66667-2 2-2s2-0.66667 2-2c0-1.1-0.9-2.9-2-4-3.3356-3.3356-2.4619-5.2333 4.0166-8.7233l5.9834-3.2233v4.9733c0 3.64-0.53619 5.5095-2 6.9733-1.1 1.1-2 2.9-2 4 0 1.3333 0.66667 2 2 2s2 0.66667 2 2c0 1.348-0.66667 2-2.0449 2-1.7228 0-1.0857 1.2601 4.0449 8 5.0972 6.6959 5.7597 8 4.0643 8-1.2704 0-3.4308-1.886-5.7949-5.0591l-3.7694-5.0591-0.29772 6.0591c-0.25487 5.187-0.57184 6.0591-2.2023 6.0591s-1.9474-0.87208-2.2023-6.0591zm3.7561-25.028c1.0305-1.6674-1.2872-3.5795-2.6667-2.2-1.1539 1.1539-0.43172 3.2871 1.1129 3.2871 0.48508 0 1.1843-0.48921 1.5539-1.0871zm-41.716 1.1432c-2.9974-5.6557-3.3894-7.0143-2.1598-7.4861 0.82624-0.31706 1.8962-0.33299 2.3777-0.03541 0.4815 0.29759 2.7345-0.40735 5.0067-1.5665s4.2573-1.9637 4.4114-1.7878c0.77413 0.8835 4.526 8.8573 4.526 9.619 0 0.48343-1.7754 1.7389-3.9453 2.7898-2.1699 1.051-4.1528 2.6984-4.4064 3.6609-0.79836 3.0302-2.0397 1.9206-5.8103-5.1939zm23.369-11.52c-2.8639-5.6329-5.2071-10.485-5.2071-10.782s0.6775-0.80041 1.5056-1.1182c1.1158-0.42816 2.7987 1.9991 6.5 9.3748 5.4158 10.792 5.6378 11.528 3.7016 12.271-0.83897 0.32194-3.121-3.0995-6.5-9.7456zm38.722-20.679c-4.583-9.1424-5.7702-12.338-4.8055-12.934 0.70468-0.43551 1.6545-0.56116 2.1107-0.27922 1.3982 0.86414 12.706 24.082 12.049 24.739-1.8774 1.8774-3.8594-0.56479-9.3541-11.526z" fill="#465a65"/>
</svg>
