<?xml version="1.0" encoding="UTF-8"?>
<!-- Created with Inkscape (http://www.inkscape.org/) -->
<svg width="96" height="96" version="1.1" viewBox="0 0 96 96" xmlns="http://www.w3.org/2000/svg" xmlns:cc="http://creativecommons.org/ns#" xmlns:dc="http://purl.org/dc/elements/1.1/" xmlns:rdf="http://www.w3.org/1999/02/22-rdf-syntax-ns#">
 <metadata>
  <rdf:RDF>
   <cc:Work rdf:about="">
    <dc:format>image/svg+xml</dc:format>
    <dc:type rdf:resource="http://purl.org/dc/dcmitype/StillImage"/>
    <dc:title/>
   </cc:Work>
  </rdf:RDF>
 </metadata>
 <!--<path d="m0.40678 48.407v-48h96v96h-96z" fill="#fefefe"/>-->
 <path d="m22.407 63.042c0-27.851 0.10313-29.496 2-31.908 1.1-1.3984 2-3.4841 2-4.6349 0-1.8441 0.59316-2.0923 5-2.0923 4.3333 0 5-0.26667 5-2 0-1.3496-0.66667-2-2.0499-2-1.8636 0-2.0227-0.52247-1.75-5.75l0.2999-5.75h11l0.2999 5.75c0.27265 5.2275 0.11364 5.75-1.75 5.75-1.3832 0-2.0499 0.65044-2.0499 2 0 1.7333 0.66667 2 5 2 4.4068 0 5 0.24821 5 2.0923 0 1.1507 0.9 3.2364 2 4.6349 1.8969 2.4115 2 4.0568 2 31.908v29.365h-32zm44.389-38.065c-0.99567-2.5947 0.39988-4.7392 2.857-4.3903 1.6527 0.23469 2.2545 0.98741 2.2545 2.8201s-0.60174 2.5854-2.2545 2.8201c-1.3523 0.19202-2.4956-0.3082-2.857-1.25zm-8-4c-0.99567-2.5947 0.39988-4.7392 2.857-4.3903 1.6527 0.23469 2.2545 0.98741 2.2545 2.8201s-0.60174 2.5854-2.2545 2.8201c-1.3523 0.19202-2.4956-0.3082-2.857-1.25zm-8-4c-0.99567-2.5947 0.39988-4.7392 2.857-4.3903 1.6527 0.23469 2.2545 0.98741 2.2545 2.8201s-0.60174 2.5854-2.2545 2.8201c-1.3523 0.19202-2.4956-0.3082-2.857-1.25zm16 0c-0.99567-2.5947 0.39988-4.7392 2.857-4.3903 1.6527 0.23469 2.2545 0.98741 2.2545 2.8201s-0.60174 2.5854-2.2545 2.8201c-1.3523 0.19202-2.4956-0.3082-2.857-1.25zm-8-4c-0.99567-2.5947 0.39988-4.7392 2.857-4.3903 1.6527 0.23469 2.2545 0.98741 2.2545 2.8201 0 1.8327-0.60174 2.5854-2.2545 2.8201-1.3523 0.19202-2.4956-0.3082-2.857-1.25zm8-4c-0.99567-2.5947 0.39988-4.7392 2.857-4.3903 1.6527 0.23469 2.2545 0.98741 2.2545 2.8201 0 1.8327-0.60174 2.5854-2.2545 2.8201-1.3523 0.19203-2.4956-0.3082-2.857-1.25z" fill="#f3b7cf"/>
 <path d="m22.84 91.094c-0.2882-0.75104-0.3911-13.946-0.22866-29.323 0.27286-25.828 0.44483-28.182 2.2581-30.911 1.0795-1.6244 1.9795-3.6284 2-4.4534 0.02667-1.0733 1.3884-1.5867 4.7873-1.8048 3.9343-0.25245 4.75-0.63884 4.75-2.25 0-1.2943-0.68591-1.9452-2.0499-1.9452-1.8636 0-2.0227-0.52247-1.75-5.75l0.2999-5.75h11l0.2999 5.75c0.27265 5.2275 0.11364 5.75-1.75 5.75-1.364 0-2.0499 0.65088-2.0499 1.9452 0 1.6112 0.81572 1.9976 4.75 2.25 3.3988 0.21809 4.7606 0.73147 4.7873 1.8048 0.0205 0.825 0.9205 2.8294 2 4.4543 1.8374 2.7657 1.9627 4.8083 1.9627 32v29.046l-15.271 0.27616c-12.175 0.22017-15.378-6.79e-4 -15.795-1.0894z" fill="#fed44e"/>
 <path d="m22.84 91.094c-0.2882-0.75104-0.3911-13.946-0.22866-29.323 0.27286-25.828 0.44483-28.182 2.2581-30.911 1.0795-1.6244 1.9795-3.6284 2-4.4534 0.02667-1.0733 1.3884-1.5867 4.7873-1.8048 3.9343-0.25245 4.75-0.63884 4.75-2.25 0-1.2785 0.68544-1.9452 2-1.9452s2 0.66667 2 1.9452c0 1.6112 0.81572 1.9976 4.75 2.25 3.3988 0.21809 4.7606 0.73147 4.7873 1.8048 0.0205 0.825 0.9205 2.8294 2 4.4543 1.8374 2.7657 1.9627 4.8083 1.9627 32v29.046l-15.271 0.27616c-12.175 0.22017-15.378-6.79e-4 -15.795-1.0894zm18.767-73.887c-2.1211-2.1211-0.74499-6.8 2-6.8 0.44 0 0.8 1.8 0.8 4 0 4.1346-0.73268 4.8673-2.8 2.8z" fill="#b866c6"/>
 <path d="m23.098 91.765c-0.38042-0.38042-0.69168-1.9391-0.69168-3.4637 0-2.5307 0.40353-2.8326 4.6349-3.4671 3.5087-0.52616 6.3953-0.14294 11.88 1.5772 6.7876 2.1287 9.2046 2.1913 13.972 0.36198 1.3636-0.52328 1.6117-0.10845 1.3429 2.2457l-0.3297 2.8876-15.058 0.27501c-8.2821 0.15126-15.37-0.03624-15.75-0.41667zm13.534-9.6505c-5.2237-1.7553-6.9395-1.9306-10.25-1.047-3.6043 0.96205-3.9761 0.88496-3.9761-0.82455 0-4.0683 7.6734-4.8886 16.593-1.7739 5.5472 1.937 9.505 2.0574 13.657 0.41563 1.3358-0.52827 1.75-0.18753 1.75 1.4397 0 4.4014-7.6962 5.1765-17.774 1.7901zm1.2739-7.6992c-5.53-2.2198-9.0705-2.5026-12.935-1.0334-1.6936 0.64389-2.5651 0.63548-2.5651-0.02475 0-1.2916 4.3714-2.9476 7.8151-2.9606 1.4767-0.0056 5.5131 0.9832 8.9698 2.1973 5.4118 1.9007 6.8693 2.0514 10.491 1.0847 4.5058-1.2027 5.7719-0.91985 3.966 0.88599-2.073 2.073-10.403 1.9941-15.742-0.14916zm-10.98-46.977c-1.2028-1.9461 0.60197-3.032 5.0392-3.032 3.7743 0 4.441-0.30023 4.441-2 0-1.3333 0.66667-2 2-2 1.3146 0 2 0.66667 2 1.9452 0 1.6112 0.81572 1.9976 4.75 2.25 3.4201 0.21946 4.75 0.72476 4.75 1.8048 0 1.227-2.0332 1.5513-11.171 1.782-6.9066 0.17436-11.415-0.11196-11.809-0.75zm14.68-10.232c-2.1211-2.1211-0.74499-6.8 2-6.8 0.44 0 0.8 1.8 0.8 4 0 4.1346-0.73268 4.8673-2.8 2.8z" fill="#fdb203"/>
 <path d="m23.098 91.765c-0.38042-0.38042-0.69168-1.9391-0.69168-3.4637 0-2.5307 0.40353-2.8326 4.6349-3.4671 3.5087-0.52616 6.3953-0.14294 11.88 1.5772 6.7876 2.1287 9.2046 2.1913 13.972 0.36198 1.3636-0.52328 1.6117-0.10845 1.3429 2.2457l-0.3297 2.8876-15.058 0.27501c-8.2821 0.15126-15.37-0.03624-15.75-0.41667zm13.534-9.6505c-5.2237-1.7553-6.9395-1.9306-10.25-1.047-3.6043 0.96205-3.9761 0.88496-3.9761-0.82455 0-4.0683 7.6734-4.8886 16.593-1.7739 5.5472 1.937 9.505 2.0574 13.657 0.41563 1.3358-0.52827 1.75-0.18753 1.75 1.4397 0 4.4014-7.6962 5.1765-17.774 1.7901zm1.2739-7.6992c-5.53-2.2198-9.0705-2.5026-12.935-1.0334-1.6936 0.64389-2.5651 0.63548-2.5651-0.02475 0-1.2916 4.3714-2.9476 7.8151-2.9606 1.4767-0.0056 5.5131 0.9832 8.9698 2.1973 5.4118 1.9007 6.8693 2.0514 10.491 1.0847 4.5058-1.2027 5.7719-0.91985 3.966 0.88599-2.073 2.073-10.403 1.9941-15.742-0.14916z" fill="#8e25aa"/>
</svg>
