<?xml version="1.0" encoding="UTF-8"?>
<!-- Created with Inkscape (http://www.inkscape.org/) -->
<svg width="96" height="96" version="1.1" viewBox="0 0 96 96" xmlns="http://www.w3.org/2000/svg" xmlns:cc="http://creativecommons.org/ns#" xmlns:dc="http://purl.org/dc/elements/1.1/" xmlns:rdf="http://www.w3.org/1999/02/22-rdf-syntax-ns#">
 <metadata>
  <rdf:RDF>
   <cc:Work rdf:about="">
    <dc:format>image/svg+xml</dc:format>
    <dc:type rdf:resource="http://purl.org/dc/dcmitype/StillImage"/>
    <dc:title/>
   </cc:Work>
  </rdf:RDF>
 </metadata>
 <!--<path d="m0.81356 48v-48h96v96h-96z" fill="#fcfcfc"/>-->
 <path d="m12.201 82.444c-4.551-2.2818-5.9675-5.4258-4.081-9.058 3.354-6.4575 17.059-20.501 25.31-25.934 10.363-6.8246 23.387-21.538 21.295-24.058-1.0591-1.2761-0.52351-2.2559 3.3513-6.1307 3.9621-3.9621 4.8346-4.4269 6.1931-3.2995 1.3186 1.0943 1.8784 1.0435 3.3695-0.30598 1.6726-1.5136 2.1036-1.2981 6.6637 3.3316 4.7497 4.8222 4.8291 5.0012 3.0772 6.937-1.7581 1.9427-1.694 2.0378 2.8696 4.2549 4.1385 2.0106 4.5976 2.5542 4.0481 4.7933-1.2996 5.2958-5.214 9.2101-10.51 10.51-2.2416 0.55011-2.783 0.08957-4.8172-4.0974l-2.2918-4.7172-10.183 10.017c-5.6005 5.5092-14.008 12.734-18.683 16.056-10.913 7.753-11.925 8.9469-13.982 16.486-1.6465 6.0356-1.839 6.2811-5.1146 6.5239-1.8721 0.13874-4.8042-0.44992-6.5159-1.3081z" fill="#f76a03"/>
 <path d="m20.314 80.345c-1.1-0.23261-3.0034-0.63671-4.2298-0.89799-1.2264-0.26128-3.5579-1.7733-5.1812-3.3601l-2.9513-2.885 2.1812-2.9277c5.981-8.028 15.76-17.838 21.755-21.823 3.6825-2.4481 6.902-4.4511 7.1544-4.4511 0.25244 0 2.3039 2.188 4.5589 4.8622l4.0999 4.8622-7.1908 4.8878c-11.555 7.8545-14.511 10.944-16.275 17.011-0.85963 2.957-1.6435 5.3242-1.742 5.2604-0.09847-0.0638-1.079-0.30632-2.179-0.53894zm48.656-40.961-2.2932-4.7202 8.8011-8.8011 4.7202 2.2932c4.1899 2.0356 4.6506 2.5769 4.1004 4.8187-1.2996 5.2958-5.214 9.2101-10.51 10.51-2.2417 0.55015-2.7831 0.08952-4.8187-4.1004zm-14.166-15.896c-1.1624-1.4006-0.72472-2.227 3.3244-6.2761 4.1617-4.1617 4.8256-4.5005 6.1753-3.1508s0.9922 2.0244-3.3244 6.2761c-4.3279 4.2629-4.9774 4.5942-6.1753 3.1508z" fill="#41525a"/>
</svg>
