<?xml version="1.0" encoding="UTF-8"?>
<!-- Created with Inkscape (http://www.inkscape.org/) -->
<svg width="96" height="96" version="1.1" viewBox="0 0 96 96" xmlns="http://www.w3.org/2000/svg" xmlns:cc="http://creativecommons.org/ns#" xmlns:dc="http://purl.org/dc/elements/1.1/" xmlns:rdf="http://www.w3.org/1999/02/22-rdf-syntax-ns#">
 <metadata>
  <rdf:RDF>
   <cc:Work rdf:about="">
    <dc:format>image/svg+xml</dc:format>
    <dc:type rdf:resource="http://purl.org/dc/dcmitype/StillImage"/>
    <dc:title/>
   </cc:Work>
  </rdf:RDF>
 </metadata>
 <!--<path d="m1.3043e-7 48.174v-48h96v96h-96z" fill="#fdfefe"/>-->
 <path d="m15.204 67.046c-12.865-6.3681-14.927-23.884-3.9465-33.525 4.6631-4.0943 9.8291-5.7341 15.827-5.0238 6.1299 0.726 10.028 2.7658 16.049 8.3978l4.8187 4.5073 4.9847-4.4817c11.383-10.234 22.651-11.438 31.806-3.3996 7.2593 6.3738 9.0293 15.305 4.8233 24.338-3.3085 7.106-8.6435 10.597-17.008 11.13-7.5382 0.48-13.707-2.2274-20.316-8.9162l-4.2576-4.3092-4.7424 4.6016c-9.1314 8.8602-18.922 11.193-28.039 6.6802zm17.87-8.7037c6.3088-4.0009 10.189-8.8087 8.9607-11.103-1.4616-2.7311-7.9923-8.1491-11.68-9.6898-6.5469-2.7355-12.886-0.83177-16.395 4.9236-2.5828 4.2359-2.4723 8.6448 0.3205 12.789 4.4454 6.5966 11.441 7.7433 18.794 3.0806zm-13.074-10.168c0-1.7778 0.66667-2 6-2s6 0.22222 6 2-0.66667 2-6 2-6-0.22222-6-2zm58.067 10.734c1.9342-1.3034 3.9846-3.9009 4.8274-6.1151 3.1919-8.3865-3.7778-17.302-12.757-16.317-4.8725 0.53404-11.081 4.443-14.816 9.3289l-2.3933 3.1305 2.7663 3.2876c4.1232 4.9002 11.072 8.9514 15.354 8.9514 2.1434 0 5.0476-0.93758 7.0187-2.2659zm-10.067-6.7341c0-1.3333-0.66667-2-2-2s-2-0.66667-2-2 0.66667-2 2-2 2-0.66667 2-2 0.66667-2 2-2 2 0.66667 2 2 0.66667 2 2 2 2 0.66667 2 2-0.66667 2-2 2-2 0.66667-2 2-0.66667 2-2 2-2-0.66667-2-2z" fill="#059789"/>
</svg>
