<?xml version="1.0" encoding="UTF-8"?>
<!-- Created with Inkscape (http://www.inkscape.org/) -->
<svg width="96" height="96" version="1.1" viewBox="0 0 96 96" xmlns="http://www.w3.org/2000/svg" xmlns:cc="http://creativecommons.org/ns#" xmlns:dc="http://purl.org/dc/elements/1.1/" xmlns:rdf="http://www.w3.org/1999/02/22-rdf-syntax-ns#">
 <metadata>
  <rdf:RDF>
   <cc:Work rdf:about="">
    <dc:format>image/svg+xml</dc:format>
    <dc:type rdf:resource="http://purl.org/dc/dcmitype/StillImage"/>
    <dc:title/>
   </cc:Work>
  </rdf:RDF>
 </metadata>
 <!--<path d="m0.34783 48.348v-48h96v96h-96z" fill="#fefefe"/>-->
 <path d="m39.966 75.298c-7.7418-1.9426-16.004-7.302-24.949-16.183-5.1382-5.1015-9.6595-8.768-10.812-8.768-1.7831 0-1.65-0.4627 1.3311-4.6295 5.5813-7.8013 15.536-16.137 24.687-20.671 8.1831-4.0549 8.8061-4.1994 18.102-4.1994 9.0977 0 10.037 0.20383 17.075 3.7056 9.32 4.6369 18.027 11.687 24.264 19.648l4.8164 6.1466-2.8164 0.05695c-2.1682 0.04384-3.6816 1.193-6.576 4.993-4.7873 6.2851-13.488 13.181-21.508 17.048-6.9748 3.3624-16.836 4.5536-23.614 2.8527zm23.111-6.9886c4.1403-2.0383 9.423-5.9457 14.097-10.427l7.4757-7.1674-7.2489-7.1774c-9.9687-9.8704-19.223-14.484-29.053-14.484-9.7169 0-19.48 4.8055-29.239 14.393l-6.9892 6.8655 2.8643 3.3128c1.5753 1.8221 5.249 5.3177 8.1637 7.768 13.65 11.475 26.24 13.656 39.93 6.9171zm-22.229-1.1261c-3.1857-1.7576-7.5573-6.1036-9.0893-9.0361-2.1261-4.0697-1.7891-12.354 0.68142-16.75 5.6737-10.095 19.758-12.205 28.281-4.2362 5.1983 4.8603 7.1022 13.151 4.5632 19.871-1.4474 3.8309-5.7628 8.2732-9.6543 9.9383-3.8357 1.6412-11.98 1.7583-14.782 0.21258z" fill="#cdd6da"/>
 <path d="m41.378 66.764c-7.5537-3.2763-11.491-9.8381-10.813-18.019 1.3802-16.643 23.246-22.233 32.467-8.2991 5.93 8.9608 2.5109 21.64-7 25.958-5.0175 2.278-9.9525 2.3992-14.654 0.35998zm-38.03-17.478c0-0.58394 4.1625-5.2242 9.25-10.312 23.825-23.825 47.117-24.231 70.307-1.2248 4.4896 4.4539 8.6918 9.1106 9.3383 10.348 1.1293 2.1617 1.0116 2.25-2.9986 2.25-3.8229 0-4.8222-0.61925-11.877-7.3596-10.651-10.176-18.781-14.14-28.998-14.14-10.455 0-18.108 3.696-28.796 13.907-7.2788 6.9541-8.2957 7.5929-12.086 7.5929-2.2764 0-4.1389-0.47777-4.1389-1.0617z" fill="#90a3ad"/>
 <path d="m42.032 66.899c-4.9831-1.7772-7.552-4.1491-9.8031-9.0512-2.4599-5.3569-2.3458-10.156 0.36927-15.53 7.2715-14.394 28.697-12.15 32.617 3.4159 2.3064 9.1594-3.1031 19.197-11.62 21.562-4.8252 1.34-6.8908 1.2691-11.563-0.39717z" fill="#04abc0"/>
 <path d="m42.802 55.893c-6.9885-6.9885 3.1227-18.246 10.345-11.518 2.8478 2.6531 3.6756 6.2139 2.1224 9.1292-2.8636 5.3749-8.4169 6.4388-12.467 2.3886z" fill="#006064"/>
</svg>
