<?xml version="1.0" encoding="UTF-8"?>
<!-- Created with Inkscape (http://www.inkscape.org/) -->
<svg width="96" height="96" version="1.1" viewBox="0 0 96 96" xmlns="http://www.w3.org/2000/svg" xmlns:cc="http://creativecommons.org/ns#" xmlns:dc="http://purl.org/dc/elements/1.1/" xmlns:rdf="http://www.w3.org/1999/02/22-rdf-syntax-ns#">
 <metadata>
  <rdf:RDF>
   <cc:Work rdf:about="">
    <dc:format>image/svg+xml</dc:format>
    <dc:type rdf:resource="http://purl.org/dc/dcmitype/StillImage"/>
    <dc:title/>
   </cc:Work>
  </rdf:RDF>
 </metadata>
 <!--<path d="m0.81356 48.407v-48h96v96h-96z" fill="#fefdfd"/>-->
 <path d="m26.634 79.529c-0.34729-7.2639-0.9138-9.7638-3.1159-13.75-7.7128-13.962-8.2046-15.423-8.1989-24.372 0.0046-7.233 0.41402-9.3337 2.747-14.093 3.5884-7.3212 8.8066-12.574 15.681-15.786 4.7863-2.2359 6.8982-2.597 15.067-2.5759 11.753 0.030273 18.074 2.4598 24.043 9.2408 3.6262 4.1196 7.9572 14.404 7.9572 18.895 0 0.80841 1.8494 4.5828 4.1097 8.3875 2.3526 3.96 3.855 7.5814 3.5141 8.47-0.32762 0.85376-2.1149 2.1871-3.9717 2.9629-3.5393 1.4788-4.6145 4.3281-4.6411 12.299-0.02534 7.5981-5.3442 11.996-12.954 10.71l-4.0573-0.68548v9.1758h-35.755z" fill="#f6b9ce"/>
 <path d="m44.814 60.655c0-1.0265-0.63864-2.7398-1.4192-3.8072-1.2405-1.6964-1.8097-1.7935-4.5201-0.7704-3.0065 1.1348-3.16 1.0547-5.0406-2.6316-1.9219-3.7672-1.9217-3.8184 0.02012-5.5757 1.0779-0.97548 1.9598-2.5341 1.9598-3.4636s-0.88192-2.4881-1.9598-3.4636c-1.9418-1.7573-1.942-1.8085-0.02012-5.5757 1.8806-3.6864 2.0341-3.7665 5.0406-2.6316 2.7104 1.0231 3.2796 0.92604 4.5201-0.7704 0.78056-1.0675 1.4192-2.7807 1.4192-3.8072 0-1.5773 0.65826-1.8187 4.25-1.5589 3.783 0.27371 4.2843 0.60445 4.5618 3.0097 0.36222 3.1391 3.1551 4.421 6.1454 2.8207 1.7565-0.94005 2.3047-0.64182 4.034 2.1946 2.4815 4.0701 2.5167 5.4403 0.17206 6.6951-2.2401 1.1988-2.1441 4.959 0.15937 6.2481 2.1809 1.2205 2.1111 2.6157-0.33143 6.6218-1.7294 2.8364-2.2775 3.1346-4.034 2.1946-2.9902-1.6003-5.7831-0.31838-6.1454 2.8207-0.27755 2.4053-0.77885 2.736-4.5618 3.0097-3.5917 0.25987-4.25 0.01843-4.25-1.5589zm8.5455-11.703c3.0327-3.0327 3.1288-6.1988 0.28023-9.231-2.7294-2.9053-6.5086-2.9609-9.5112-0.14014-2.9053 2.7294-2.9609 6.5086-0.14014 9.5112 2.8116 2.9928 6.2903 2.9408 9.3711-0.14009z" fill="#e81e63"/>
</svg>
