<?xml version="1.0" encoding="UTF-8"?>
<!-- Created with Inkscape (http://www.inkscape.org/) -->
<svg width="96" height="96" version="1.1" viewBox="0 0 96 96" xmlns="http://www.w3.org/2000/svg" xmlns:cc="http://creativecommons.org/ns#" xmlns:dc="http://purl.org/dc/elements/1.1/" xmlns:rdf="http://www.w3.org/1999/02/22-rdf-syntax-ns#">
 <metadata>
  <rdf:RDF>
   <cc:Work rdf:about="">
    <dc:format>image/svg+xml</dc:format>
    <dc:type rdf:resource="http://purl.org/dc/dcmitype/StillImage"/>
    <dc:title/>
   </cc:Work>
  </rdf:RDF>
 </metadata>
 <!--<path d="m0.34783 48v-48h96v96h-96z" fill="#fefefe"/>-->
 <path d="m38.766 84.925c-5.8112-1.6873-6.8811-3.9843-7.2615-15.589-0.42235-12.887 0.05109-14.882 4.1196-17.363 2.6556-1.6192 5.0487-1.9659 13.591-1.969l10.368-0.003738 3.8824-3.8824c3.7825-3.7825 3.8824-4.0654 3.8824-11v-7.1176h4.7775c9.2678 0 12.65 4.976 12.693 18.677 0.02477 7.7812-0.28958 9.606-2.0672 12-3.5508 4.782-5.6819 5.2927-22.154 5.3086-14.578 0.01409-15.25 0.10282-15.25 2.0147 0 1.8519 0.66667 2 9 2h9v5.7775c0 3.5144-0.58695 6.6155-1.4984 7.9168-2.5239 3.6034-15.53 5.4237-23.083 3.2306zm20.401-9.6896c0.41016-2.8753-2.4173-4.0667-4.5618-1.9222-1.3278 1.3278-1.3709 1.8464-0.26442 3.1796 1.7996 2.1683 4.4355 1.4816 4.8262-1.2574zm-44.787-10.049c-7.4942-7.4942-5.7998-29.043 2.5329-32.211 1.4106-0.53629 9.2853-0.97507 17.5-0.97507 14.268 0 14.935-0.08928 14.935-2 0-1.8519-0.66667-2-9-2h-9l0.01365-4.75c0.02783-9.682 2.301-11.893 13.265-12.904 7.7743-0.71665 13.974 0.88747 16.668 4.313 1.7965 2.2839 2.0536 4.0265 2.0536 13.92 0 10.492-0.17324 11.511-2.397 14.096-2.3164 2.693-2.8008 2.8045-14.407 3.3162-10.116 0.446-12.356 0.84292-14.205 2.5167-3.5857 3.245-4.9911 7.0301-4.9911 13.442v6.0497h-5.0769c-4.2329 0-5.5447-0.46774-7.8904-2.8135zm26.787-43.951c0.41016-2.8753-2.4173-4.0667-4.5618-1.9222-1.3278 1.3278-1.3709 1.8464-0.26442 3.1796 1.7996 2.1683 4.4355 1.4816 4.8262-1.2574z" fill="#fec008"/>
 <path d="m14.381 65.187c-7.4942-7.4942-5.7998-29.043 2.5329-32.211 1.4106-0.53629 9.2853-0.97507 17.5-0.97507 14.268 0 14.935-0.08928 14.935-2 0-1.8519-0.66667-2-9-2h-9l0.01365-4.75c0.02783-9.682 2.301-11.893 13.265-12.904 7.7743-0.71665 13.974 0.88747 16.668 4.313 1.7965 2.2839 2.0536 4.0265 2.0536 13.92 0 10.492-0.17324 11.511-2.397 14.096-2.3164 2.693-2.8008 2.8045-14.407 3.3162-10.116 0.446-12.356 0.84292-14.205 2.5167-3.5857 3.245-4.9911 7.0301-4.9911 13.442v6.0497h-5.0769c-4.2329 0-5.5447-0.46774-7.8904-2.8135zm26.787-43.951c0.41016-2.8753-2.4173-4.0667-4.5618-1.9222-1.3278 1.3278-1.3709 1.8464-0.26442 3.1796 1.7996 2.1683 4.4355 1.4816 4.8262-1.2574z" fill="#0176bc"/>
</svg>
