<?xml version="1.0" encoding="UTF-8"?>
<!-- Created with Inkscape (http://www.inkscape.org/) -->
<svg width="96" height="96" version="1.1" viewBox="0 0 96 96" xmlns="http://www.w3.org/2000/svg" xmlns:cc="http://creativecommons.org/ns#" xmlns:dc="http://purl.org/dc/elements/1.1/" xmlns:rdf="http://www.w3.org/1999/02/22-rdf-syntax-ns#">
 <metadata>
  <rdf:RDF>
   <cc:Work rdf:about="">
    <dc:format>image/svg+xml</dc:format>
    <dc:type rdf:resource="http://purl.org/dc/dcmitype/StillImage"/>
    <dc:title/>
   </cc:Work>
  </rdf:RDF>
 </metadata>
 <!--<path d="m0.34783 48.348v-48h96v96h-96z" fill="#fcfcfd"/>-->
 <path d="m40.943 87.848c-2.0262-1.375-4.0015-2.5014-4.3895-2.5032-0.38808-0.0018-3.3852-1.7847-6.6604-3.9622-5.5623-3.6981-9.3937-8.5454-9.5125-12.035-0.02808-0.825-1.1579-3.75-2.5106-6.5-1.3528-2.75-2.4737-6.027-2.4909-7.2821-0.04079-2.9769 2.2369-8.3679 4.2357-10.025 0.8672-0.71916 1.8754-3.0753 2.2404-5.2358 0.36743-2.1748 1.8745-5.2244 3.3762-6.832l2.7126-2.9038-3.6923-3.9583c-2.6694-2.8618-4.0448-5.5334-4.9647-9.6438-0.76724-3.4284-0.90847-6.0204-0.35575-6.5292 0.50413-0.46403 3.3018-1.6177 6.217-2.5637 8.773-2.8469 18.719-0.47995 22.18 5.2786 0.95827 1.5942 1.0802 1.5942 2.0385 0 3.4615-5.7585 13.407-8.1255 22.18-5.2786 2.9152 0.94602 5.7129 2.0997 6.217 2.5637 0.55272 0.50875 0.41149 3.1008-0.35575 6.5292-0.91988 4.1105-2.2952 6.7821-4.9647 9.6438l-3.6923 3.9583 2.7126 2.9038c1.5018 1.6076 3.0088 4.6572 3.3762 6.832 0.36502 2.1605 1.3732 4.5166 2.2404 5.2358 1.9988 1.6576 4.2764 7.0486 4.2357 10.025-0.0172 1.2552-1.1381 4.5321-2.4909 7.2821-1.3528 2.75-2.4826 5.675-2.5106 6.5-0.11877 3.4893-3.9502 8.3366-9.5125 12.035-3.2751 2.1775-6.2723 3.9604-6.6604 3.9622-0.38808 0.0018-2.3634 1.1282-4.3895 2.5032-2.2969 1.5587-5.085 2.5-7.4049 2.5s-5.108-0.9413-7.4049-2.5z" fill="#fe3f80"/>
 <path d="m40.943 87.848c-2.0262-1.375-4.0015-2.5014-4.3895-2.5032-0.38808-0.0018-3.3852-1.7847-6.6604-3.9622-5.5623-3.6981-9.3937-8.5454-9.5125-12.035-0.02808-0.825-1.1579-3.75-2.5106-6.5-1.3528-2.75-2.4737-6.027-2.4909-7.2821-0.04079-2.9769 2.2369-8.3679 4.2357-10.025 0.8672-0.71916 1.8754-3.0753 2.2404-5.2358 0.36743-2.1748 1.8745-5.2244 3.3762-6.832l2.7126-2.9038-3.6923-3.9583c-2.6694-2.8618-4.0448-5.5334-4.9647-9.6438-0.76724-3.4284-0.90847-6.0204-0.35575-6.5292 0.50413-0.46403 3.3018-1.6177 6.217-2.5637 8.773-2.8469 18.719-0.47995 22.18 5.2786 0.95827 1.5942 1.0802 1.5942 2.0385 0 3.4615-5.7585 13.407-8.1255 22.18-5.2786 2.9152 0.94602 5.7129 2.0997 6.217 2.5637 0.55272 0.50875 0.41149 3.1008-0.35575 6.5292-0.91988 4.1105-2.2952 6.7821-4.9647 9.6438l-3.6923 3.9583 2.7126 2.9038c1.5018 1.6076 3.0088 4.6572 3.3762 6.832 0.36502 2.1605 1.3732 4.5166 2.2404 5.2358 1.9988 1.6576 4.2764 7.0486 4.2357 10.025-0.0172 1.2552-1.1381 4.5321-2.4909 7.2821-1.3528 2.75-2.4826 5.675-2.5106 6.5-0.11877 3.4893-3.9502 8.3366-9.5125 12.035-3.2751 2.1775-6.2723 3.9604-6.6604 3.9622-0.38808 0.0018-2.3634 1.1282-4.3895 2.5032-2.2969 1.5587-5.085 2.5-7.4049 2.5s-5.108-0.9413-7.4049-2.5zm12.333-1.963c6.1483-3.1794 3.9317-6.537-4.3157-6.537-4.6251 0-9.6128 1.6475-9.6128 3.1752 0 1.3719 6.2882 4.817 8.7997 4.821 1.2648 0.0021 3.5728-0.65462 5.1288-1.4593zm14.905-9.2189c4.3451-2.744 6.3118-11.874 2.9989-13.922-3.4855-2.1542-10.467 4.5747-11.527 11.111-0.91307 5.6266 2.3611 6.7057 8.5284 2.811zm-31.837-1.5681c-5e-3 -4.3884-3.0698-9.1236-6.9437-10.728-2.7549-1.1411-3.4004-1.1025-4.7895 0.2866-1.3685 1.3685-1.429 2.1944-0.4102 5.5949 1.4133 4.717 5.2877 8.0967 9.282 8.0967 2.5666 0 2.8648-0.33868 2.8614-3.25zm18.549-2.2045c6.7692-6.7692-1.1089-16.844-10.201-13.045-8.6711 3.623-5.6909 15.5 3.8893 15.5 2.7616 0 4.5539-0.69702 6.3114-2.4545zm-30.615-17.18c1.2358-6.5165 0.518-9.6756-1.904-8.3793-3.8951 2.0846-4.924 10.023-1.7888 13.801 1.5548 1.8734 2.6004 0.33816 3.6928-5.4218zm52.094 3.0699c1.5027-3.9523 1.1707-6.9167-1.0973-9.8-3.0007-3.8148-3.9274-3.272-3.9274 2.3 0 5.447 1.3765 10.065 3 10.065 0.57723 0 1.4884-1.1543 2.0248-2.5651zm-33.813-2.3326c2.6848-2.3989 3.243-3.6222 3.243-7.1068 0-10.371-13.515-10.681-16.36-0.3755-2.5137 9.1038 5.9188 13.914 13.117 7.4823zm21.749 1.9188c4.3072-2.3052 4.4205-9.7179 0.21984-14.384-4.088-4.541-11.034-3.8197-13.183 1.369-3.1342 7.5667 6.0026 16.74 12.963 13.015zm6.4621-17.771c-0.92-4.1108-5.8111-8.2573-9.6884-8.2135l-3.2342 0.03646 5.7966 5.4635c3.1881 3.0049 6.2342 5.4635 6.7691 5.4635 0.54336 0 0.70087-1.2134 0.35697-2.75zm-38.242-3.2119c5.2154-4.8646 5.2645-4.9626 2.504-5-5.1496-0.06972-9.5926 3.48-9.6525 7.7119-0.04658 3.2957 1.2246 2.8134 7.1484-2.7119zm21.885 0.92669c4.3141-2.3089 0.0068-7.9648-6.0657-7.9648-3.1474 0-8 2.83-8 4.6654 0 0.88774 0.7875 2.2119 1.75 2.9425 2.0947 1.5901 9.6048 1.8077 12.316 0.35686z" fill="#d74076"/>
 <path d="m40.943 87.848c-2.0262-1.375-4.0015-2.5014-4.3895-2.5032-0.38808-0.0018-3.3852-1.7847-6.6604-3.9622-5.5623-3.6981-9.3937-8.5454-9.5125-12.035-0.02808-0.825-1.1579-3.75-2.5106-6.5-1.3528-2.75-2.4737-6.027-2.4909-7.2821-0.04079-2.9769 2.2369-8.3679 4.2357-10.025 0.8672-0.71916 1.8754-3.0753 2.2404-5.2358 0.36743-2.1748 1.8745-5.2244 3.3762-6.832l2.7126-2.9038-3.6923-3.9583c-2.6694-2.8618-4.0448-5.5334-4.9647-9.6438-0.76724-3.4284-0.90847-6.0204-0.35575-6.5292 0.50413-0.46403 3.3018-1.6177 6.217-2.5637 8.773-2.8469 18.719-0.47995 22.18 5.2786 0.95827 1.5942 1.0802 1.5942 2.0385 0 3.4615-5.7585 13.407-8.1255 22.18-5.2786 2.9152 0.94602 5.7129 2.0997 6.217 2.5637 0.55272 0.50875 0.41149 3.1008-0.35575 6.5292-0.91988 4.1105-2.2952 6.7821-4.9647 9.6438l-3.6923 3.9583 2.7126 2.9038c1.5018 1.6076 3.0088 4.6572 3.3762 6.832 0.36502 2.1605 1.3732 4.5166 2.2404 5.2358 1.9988 1.6576 4.2764 7.0486 4.2357 10.025-0.0172 1.2552-1.1381 4.5321-2.4909 7.2821-1.3528 2.75-2.4826 5.675-2.5106 6.5-0.11877 3.4893-3.9502 8.3366-9.5125 12.035-3.2751 2.1775-6.2723 3.9604-6.6604 3.9622-0.38808 0.0018-2.3634 1.1282-4.3895 2.5032-2.2969 1.5587-5.085 2.5-7.4049 2.5s-5.108-0.9413-7.4049-2.5zm14.767-3.4475c2.1065-2.1359 2.1094-2.1891 0.19686-3.6102-2.6142-1.9424-12.576-1.9059-15.118 0.05542-1.8905 1.4587-1.8647 1.5658 0.99185 4.1094 2.489 2.2164 3.6034 2.5361 7.362 2.1125 2.7106-0.30552 5.2586-1.3404 6.567-2.6671zm-19.859-6.4314c1.6902-1.2359 1.76-1.7986 0.67307-5.4263-2.3866-7.9658-12.238-12.5-12.99-5.979-0.46036 3.9928 2.496 9.3767 6.1341 11.171 3.9075 1.927 3.8697 1.9256 6.1825 0.23443zm31.576-0.3272c3.8752-2.2891 6.286-7.5318 5.4682-11.891-0.54347-2.8969-1.0498-3.4028-3.406-3.4028-2.8252 0-6.8204 3.4038-9.0196 7.6843-1.2334 2.4007-1.5071 7.5975-0.45552 8.6491 1.1743 1.1744 4.4406 0.71637 7.4129-1.0394zm-12.715-4.185c6.8021-5.8691 1.1181-16.36-7.9429-14.66-3.9279 0.73687-7.4218 4.7213-7.4218 8.4637 0 7.2809 9.6142 11.158 15.365 6.1966zm-30.407-15.895c1.3722-4.9407 1.3163-9.9267-0.12118-10.815-1.8501-1.1434-5.8362 4.2758-5.8362 7.9345 0 3.48 2.5759 8.0469 4.0314 7.1473 0.492-0.30408 1.3587-2.2241 1.926-4.2667zm53.043-2.7689c0-4.325-4.3919-9.7653-6.0102-7.445-1.1194 1.605-0.48578 8.5783 1.1729 12.909l0.99262 2.5914 1.9223-2.3608c1.0573-1.2984 1.9223-3.8608 1.9223-5.6942zm-37.534 4.1338c6.0523-2.5288 8.3016-10.062 4.4617-14.944-2.9361-3.7326-8.0856-3.6305-11.953 0.23701-6.3218 6.3218-4.5701 13.705 3.8078 16.049 0.15516 0.04342 1.8128-0.5606 3.6836-1.3423zm25.233-1.08c4.8125-3.3708 3.2738-12.91-2.5699-15.932-4.2846-2.2157-6.8327-1.953-9.7954 1.0096-7.1973 7.1973 4.0375 20.756 12.365 14.923zm-33.448-19.014c5.6124-4.406 6.6242-5.8265 4.9062-6.8882-1.6282-1.0063-8.1896 1.5253-9.5979 3.7031-1.8199 2.8144-3.0362 7.7006-1.9167 7.6998 0.47212-3.46e-4 3.4459-2.0319 6.6084-4.5146zm39.75 2.9656c0-2.4578-2.84-7.2943-4.9446-8.4207-2.7779-1.4867-8.3216-1.3302-7.8083 0.22036 0.50547 1.5271 10.449 9.75 11.79 9.75 0.5294 0 0.96254-0.69735 0.96254-1.5497zm-16.2-3.6503c3.2874-3.2874-0.64662-7.8-6.8-7.8-6.4063 0-10.639 5.3635-6.25 7.9199 2.4356 1.4186 11.596 1.3344 13.05-0.1199z" fill="#60d319"/>
 <path d="m40.943 87.848c-2.0262-1.375-4.0015-2.5014-4.3895-2.5032-0.38808-0.0018-3.3852-1.7847-6.6604-3.9622-5.5623-3.6981-9.3937-8.5454-9.5125-12.035-0.02808-0.825-1.1579-3.75-2.5106-6.5-1.3528-2.75-2.4737-6.027-2.4909-7.2821-0.04079-2.9769 2.2369-8.3679 4.2357-10.025 0.8672-0.71916 1.8754-3.0753 2.2404-5.2358 0.36743-2.1748 1.8745-5.2244 3.3762-6.832l2.7126-2.9038-3.6923-3.9583c-2.6694-2.8618-4.0448-5.5334-4.9647-9.6438-0.76724-3.4284-0.90847-6.0204-0.35575-6.5292 0.50413-0.46403 3.3018-1.6177 6.217-2.5637 8.773-2.8469 18.719-0.47995 22.18 5.2786 0.95827 1.5942 1.0802 1.5942 2.0385 0 3.4615-5.7585 13.407-8.1255 22.18-5.2786 2.9152 0.94602 5.7129 2.0997 6.217 2.5637 0.55272 0.50875 0.41149 3.1008-0.35575 6.5292-0.91988 4.1105-2.2952 6.7821-4.9647 9.6438l-3.6923 3.9583 2.7126 2.9038c1.5018 1.6076 3.0088 4.6572 3.3762 6.832 0.36502 2.1605 1.3732 4.5166 2.2404 5.2358 1.9988 1.6576 4.2764 7.0486 4.2357 10.025-0.0172 1.2552-1.1381 4.5321-2.4909 7.2821-1.3528 2.75-2.4826 5.675-2.5106 6.5-0.11877 3.4893-3.9502 8.3366-9.5125 12.035-3.2751 2.1775-6.2723 3.9604-6.6604 3.9622-0.38808 0.0018-2.3634 1.1282-4.3895 2.5032-2.2969 1.5587-5.085 2.5-7.4049 2.5s-5.108-0.9413-7.4049-2.5zm14.767-3.4475c2.1065-2.1359 2.1094-2.1891 0.19686-3.6102-2.6142-1.9424-12.576-1.9059-15.118 0.05542-1.8905 1.4587-1.8647 1.5658 0.99185 4.1094 2.489 2.2164 3.6034 2.5361 7.362 2.1125 2.7106-0.30552 5.2586-1.3404 6.567-2.6671zm-19.859-6.4314c1.6902-1.2359 1.76-1.7986 0.67307-5.4263-2.3866-7.9658-12.238-12.5-12.99-5.979-0.46036 3.9928 2.496 9.3767 6.1341 11.171 3.9075 1.927 3.8697 1.9256 6.1825 0.23443zm31.576-0.3272c3.8752-2.2891 6.286-7.5318 5.4682-11.891-0.54347-2.8969-1.0498-3.4028-3.406-3.4028-2.8252 0-6.8204 3.4038-9.0196 7.6843-1.2334 2.4007-1.5071 7.5975-0.45552 8.6491 1.1743 1.1744 4.4406 0.71637 7.4129-1.0394zm-12.715-4.185c6.8021-5.8691 1.1181-16.36-7.9429-14.66-3.9279 0.73687-7.4218 4.7213-7.4218 8.4637 0 7.2809 9.6142 11.158 15.365 6.1966zm-30.407-15.895c1.3722-4.9407 1.3163-9.9267-0.12118-10.815-1.8501-1.1434-5.8362 4.2758-5.8362 7.9345 0 3.48 2.5759 8.0469 4.0314 7.1473 0.492-0.30408 1.3587-2.2241 1.926-4.2667zm53.043-2.7689c0-4.325-4.3919-9.7653-6.0102-7.445-1.1194 1.605-0.48578 8.5783 1.1729 12.909l0.99262 2.5914 1.9223-2.3608c1.0573-1.2984 1.9223-3.8608 1.9223-5.6942zm-37.534 4.1338c6.0523-2.5288 8.3016-10.062 4.4617-14.944-2.9361-3.7326-8.0856-3.6305-11.953 0.23701-6.3218 6.3218-4.5701 13.705 3.8078 16.049 0.15516 0.04342 1.8128-0.5606 3.6836-1.3423zm25.233-1.08c4.8125-3.3708 3.2738-12.91-2.5699-15.932-4.2846-2.2157-6.8327-1.953-9.7954 1.0096-7.1973 7.1973 4.0375 20.756 12.365 14.923zm-33.448-19.014c5.6124-4.406 6.6242-5.8265 4.9062-6.8882-1.6282-1.0063-8.1896 1.5253-9.5979 3.7031-1.8199 2.8144-3.0362 7.7006-1.9167 7.6998 0.47212-3.46e-4 3.4459-2.0319 6.6084-4.5146zm39.75 2.9656c0-2.4578-2.84-7.2943-4.9446-8.4207-2.7779-1.4867-8.3216-1.3302-7.8083 0.22036 0.50547 1.5271 10.449 9.75 11.79 9.75 0.5294 0 0.96254-0.69735 0.96254-1.5497zm-16.2-3.6503c3.2874-3.2874-0.64662-7.8-6.8-7.8-6.4063 0-10.639 5.3635-6.25 7.9199 2.4356 1.4186 11.596 1.3344 13.05-0.1199zm-15.023-10.357c3.3161-2.3227 2.7575-3.7853-2.9797-7.8015-6.3286-4.4303-5.4002-4.7993 1.458-0.57943 5.562 3.4223 7.7443 3.2542 7.7443-0.5967 0-3.3705-1.5209-6.1389-4.1438-7.5426-3.2944-1.7631-11.686-2.2306-16.392-0.91313-3.9586 1.1083-4.2745 1.4433-4.0987 4.3455 0.6067 10.015 11.621 17.844 18.412 13.088zm25.407 0.66241c2.9776-1.1502 6.8151-4.5135 6.8151-5.973 0-0.62299 0.525-1.1327 1.1667-1.1327 0.64167 0 0.87057-0.2961 0.50868-0.65799s-0.1568-1.2619 0.45578-2c0.61257-0.7381 0.77857-1.342 0.36888-1.342s-0.18469-0.675 0.5-1.5c0.82118-0.98947 0.87354-1.5 0.15383-1.5-0.60008 0-0.86303-0.59423-0.58433-1.3205 0.5322-1.3869-6.1609-4.05-7.7345-3.0775-0.45925 0.28383-0.835 0.070912-0.835-0.47315 0-0.618-1.0975-0.67444-2.9247-0.15041-1.6086 0.46134-3.1451 0.61847-3.4144 0.34917-0.26929-0.26929-1.5407 0.093387-2.8253 0.80596-1.2846 0.71257-2.7096 1.3115-3.1667 1.331-1.2645 0.05392-3.5936 4.744-3.6335 7.3168-0.05521 3.5547 2.261 3.6173 8.6107 0.23248 3.2196-1.7162 4.9852-2.534 3.9236-1.8171-1.0616 0.71681-3.4891 2.6877-5.3945 4.3797l-3.4643 3.0764 2.333 2.1736c2.4896 2.3194 5.3954 2.726 9.1408 1.2793z" fill="#9f4268"/>
 <path d="m42.615 88.596c-16.125-8.7218-19.617-11.705-21.842-18.66-0.8953-2.7987-2.5339-7.0246-3.6413-9.3908-2.4901-5.3209-1.8779-9.2534 2.2378-14.375 1.6378-2.038 2.9778-4.8412 2.9778-6.2294 0-1.3994 1.3889-4.1057 3.1174-6.0744l3.1174-3.5506-3.0224-2.7342c-3.9597-3.5822-6.2728-8.3625-6.516-13.466l-0.19653-4.1245 5.7582-1.7217c9.5084-2.8429 19.502-0.73616 21.946 4.6262 1.4067 3.0875 2.1855 3.0875 3.5923 0 2.4432-5.3623 12.437-7.4691 21.946-4.6262l5.7582 1.7217-0.19653 4.1245c-0.24318 5.1036-2.5563 9.884-6.516 13.466l-3.0224 2.7342 3.1174 3.5506c1.7286 1.9687 3.1174 4.675 3.1174 6.0744 0 1.3881 1.34 4.1913 2.9778 6.2294 4.1157 5.1214 4.7279 9.054 2.2378 14.375-1.1074 2.3663-2.746 6.5922-3.6413 9.3908-1.8626 5.8225-4.682 8.7977-12.842 13.551-10.141 5.9078-12.18 6.8569-14.733 6.8569-1.375 0-3.9546-0.7868-5.7325-1.7484zm12.098-3.321c3.7502-2.9499 3.2953-4.6725-1.5807-5.9855-5.1058-1.3748-11.599-0.21717-13.18 2.35-0.90215 1.4643-0.64688 2.146 1.3959 3.7278 3.4137 2.6432 9.9448 2.5981 13.365-0.09234zm-18.374-7.4165c3.4426-4.1481-3.8372-15-9.6192-14.339-2.383 0.27231-2.9226 0.84836-3.1707 3.3844-0.44101 4.5092 1.3286 8.1865 5.024 10.44 3.908 2.3827 6.0955 2.5278 7.7658 0.51516zm31.595-0.15946c4.6649-3.0566 6.7624-9.9629 4.3785-14.417-1.5024-2.8072-3.446-2.3978-7.9547 1.6756-4.658 4.2082-7.0811 10.395-5.0365 12.858 1.6606 2.0009 5.4592 1.9494 8.6126-0.11677zm-14.731-2.7765c2.9026-1.501 5.145-5.2923 5.145-8.699 0-3.2026-5.3241-7.876-8.9727-7.876-3.7623 0-8.5497 2.3132-9.4061 4.5448-3.322 8.657 5.0462 16.264 13.234 12.03zm-29.886-14.038c0.66764-0.80445 1.4546-4.1177 1.7489-7.3628 0.6545-7.218-0.86151-8.8714-4.3817-4.779-2.514 2.9227-3.112 8.2865-1.301 11.67 1.2377 2.3127 2.3001 2.4401 3.9338 0.47162zm52.996-0.47162c2.8668-5.3566-0.35227-15.282-4.4467-13.711-1.5211 0.58369-1.7089 1.5072-1.2369 6.0809 0.86965 8.4261 3.4231 11.854 5.6836 7.6301zm-32.715-4.0468c6.9958-7.7603 0.46193-18.823-8.5823-14.531-6.6276 3.145-8.748 11.523-4.0942 16.177 3.4279 3.4279 8.7226 2.7406 12.677-1.6454zm22.773 0.23105c6.6578-8.4459-5.936-21.377-13.708-14.076-3.9658 3.7257-2.6693 11.36 2.6397 15.544 0.85024 0.67001 3.2007 1.2325 5.2233 1.25 2.8413 0.02457 4.1703-0.59345 5.8452-2.7182zm-36.423-16.114c8.8776-6.5203 10.09-10.05 2.9951-8.7193-4.0411 0.75811-7.3575 4.1462-8.2047 8.3819-0.79307 3.9653 0.18396 4.0286 5.2096 0.33746zm41.4 0.49933c0-3.5292-3.5962-7.4336-8.0857-8.7787-6.6758-2.0001-6.8124 0.12233-0.38574 5.9959 6.2 5.6665 8.4715 6.4126 8.4715 2.7828zm-17.602-1.7703c4.8757-2.2215 4.0365-5.9477-1.8982-8.4285-3.8815-1.6225-7.7761-0.83526-10.568 2.1361-1.9164 2.04-2.0365 2.5973-0.8637 4.0104 2.7373 3.2982 8.8153 4.3388 13.329 2.282zm-13.62-11.421c3.3161-2.3227 2.7575-3.7853-2.9797-7.8015-6.3286-4.4303-5.4002-4.7993 1.458-0.57943 5.562 3.4223 7.7443 3.2542 7.7443-0.5967 0-3.3705-1.5209-6.1389-4.1438-7.5426-3.2944-1.7631-11.686-2.2306-16.392-0.91313-3.9586 1.1083-4.2745 1.4433-4.0987 4.3455 0.6067 10.015 11.621 17.844 18.412 13.088zm25.407 0.66241c2.9776-1.1502 6.8151-4.5135 6.8151-5.973 0-0.62299 0.525-1.1327 1.1667-1.1327 0.64167 0 0.87057-0.2961 0.50868-0.65799s-0.1568-1.2619 0.45578-2c0.61257-0.7381 0.77857-1.342 0.36888-1.342s-0.18469-0.675 0.5-1.5c0.82118-0.98947 0.87354-1.5 0.15383-1.5-0.60008 0-0.86303-0.59423-0.58433-1.3205 0.5322-1.3869-6.1609-4.05-7.7345-3.0775-0.45925 0.28383-0.835 0.070912-0.835-0.47315 0-0.618-1.0975-0.67444-2.9247-0.15041-1.6086 0.46134-3.1451 0.61847-3.4144 0.34917-0.26929-0.26929-1.5407 0.093387-2.8253 0.80596-1.2846 0.71257-2.7096 1.3115-3.1667 1.331-1.2645 0.05392-3.5936 4.744-3.6335 7.3168-0.05521 3.5547 2.261 3.6173 8.6107 0.23248 3.2196-1.7162 4.9852-2.534 3.9236-1.8171-1.0616 0.71681-3.4891 2.6877-5.3945 4.3797l-3.4643 3.0764 2.333 2.1736c2.4896 2.3194 5.3954 2.726 9.1408 1.2793z" fill="#594e5c"/>
 <path d="m34.348 83.486c-10.198-6.1827-10.8-6.9294-15.489-19.217-3.4041-8.9198-3.2895-12.965 0.48943-17.269 1.65-1.8792 3-4.3923 3-5.5845 0-2.9972 2.5424-7.6291 5.2443-9.554 2.0943-1.4921 2.1294-1.6795 0.49038-2.619-7.3663-4.2222-11.646-17.267-6.5589-19.989 1.1967-0.64045 5.0207-1.3928 8.4977-1.6719 8.2188-0.65973 14.646 1.6083 16.514 5.827 1.6205 3.661 2.0049 3.661 3.6254 0 1.8674-4.2187 8.2949-6.4867 16.514-5.827 3.4771 0.27911 7.301 1.0315 8.4977 1.6719 5.0876 2.7228 0.80746 15.767-6.5589 19.989-1.639 0.93944-1.6039 1.1269 0.49038 2.619 2.7018 1.925 5.2443 6.5568 5.2443 9.554 0 1.1922 1.3894 3.75 3.0874 5.6841 2.714 3.0911 3.0337 4.0746 2.6431 8.132-0.44342 4.6061-5.5741 19.017-7.6693 21.542-0.60821 0.73285-5.3667 3.8617-10.574 6.9531-12.679 7.5262-14.704 7.5084-27.487-0.2409zm18.452 3.4462c4.2882-1.7917 6.1333-4.8543 3.9942-6.6296-2.4383-2.0236-10.54-2.3604-14.724-0.612-2.0468 0.85521-3.7215 1.9581-3.7215 2.451 0 2.0244 6.2827 5.9696 9.7821 6.1426 0.70516 0.03486 2.8064-0.57352 4.6695-1.352zm-15.679-11.585c0.66561-8.5494-12.086-17.556-14.077-9.9427-1.5778 6.0335 4.8642 14.313 10.694 13.746 2.768-0.26959 3.1404-0.68823 3.3828-3.8029zm32.828 0.6c2.8364-2.8364 3.4-4.1294 3.4-7.8 0-7.8517-4.1813-9.0374-10.064-2.8539-3.9002 4.1-5.5463 8.5569-4.4436 12.031 1.0987 3.4618 6.9997 2.7299 11.107-1.3775zm-14.523-2.5231c1.995-1.995 2.9231-3.9244 2.9231-6.0769s-0.92808-4.0819-2.9231-6.0769c-7.3491-7.3491-19.874-0.09004-15.997 9.2711 2.5589 6.1778 11.153 7.7265 15.997 2.8828zm-31.175-14.226c0.6038-1.7321 1.0978-5.3321 1.0978-8 0-4.1653-0.27939-4.8508-1.9769-4.8508-2.7782 0-5.4988 4.6352-5.38 9.1661 0.17789 6.7842 4.3271 9.2268 6.2591 3.6847zm52.943-0.25968c1.7849-3.6635 0.76146-8.6724-2.3739-11.618-3.5509-3.3359-4.8286-1.5878-4.2893 5.8683 0.6458 8.9281 3.7919 11.643 6.6632 5.7497zm-35.359-0.759c5.6823-4.4697 6.5286-12.102 1.7579-15.855-3.0069-2.3652-5.3561-2.4881-9.2332-0.48321-4.124 2.1326-6.011 5.3208-6.011 10.156 0 3.3516 0.53472 4.6255 2.6349 6.2775 3.3939 2.6696 7.3809 2.6346 10.851-0.09532zm24.764-0.98552c1.0286-1.2156 1.75-3.7126 1.75-6.0574 0-7.495-8.6671-13.178-14.961-9.8103-2.6298 1.4074-4.1005 6.3216-3.0197 10.09 1.1579 4.0372 2.774 5.9248 6.4798 7.5679 3.6896 1.6359 7.4328 0.94867 9.7504-1.7902zm3.6597-20.065c-0.76497-1.8468-2.5399-3.5652-4.5499-4.4051-3.7969-1.5864-8.3598-1.8185-8.3598-0.42513 0 1.2909 6.7963 7.8839 10.5 10.186 2.9682 1.8449 3.0035 1.8425 3.332-0.23153 0.1826-1.1529-0.23243-3.4588-0.92227-5.1243zm-37.49 1.1176c3.0693-2.8052 5.5806-5.5052 5.5806-6 0-1.2958-5.4504-1.1072-8.5279 0.29503-4.2788 1.9496-7.6002 10.805-4.0526 10.805 0.78068 0 3.9307-2.2952 7-5.1003zm22.358 0.54364c7.1101-4.9801-4.9828-12.226-12.527-7.5058-1.8903 1.1825-3.25 2.8626-3.25 4.0159 0 4.292 11.121 6.7518 15.777 3.4899zm-15-11c3.1745-2.2235 2.7736-3.7894-1.7775-6.9433-2.2-1.5246-4-2.9516-4-3.1712 0-0.53782 3.899 1.5342 7.0934 3.7696 3.0674 2.1465 4.9066 0.9936 4.9066-3.0759 0-7.2658-9.6108-11.093-20.302-8.0848-3.3004 0.9287-4.6389 1.775-4.2814 2.7067 0.2861 0.74558 0.02921 1.3556-0.57087 1.3556-0.71971 0-0.66735 0.51053 0.15383 1.5 0.68469 0.825 0.90969 1.5 0.5 1.5s-0.24369 0.6039 0.36888 1.342c0.61257 0.7381 0.81767 1.6381 0.45578 2s-0.13299 0.65799 0.50868 0.65799c0.64167 0 1.1667 0.48214 1.1667 1.0714 0 2.6104 6.8528 6.9122 11.027 6.9224 1.3901 0.0034 3.5276-0.69436 4.75-1.5505zm25.407 0.66241c2.9776-1.1502 6.8151-4.5135 6.8151-5.973 0-0.62299 0.45-1.1327 1-1.1327s0.94671-0.3375 0.88158-0.75c-0.06513-0.4125-0.0089-1.0875 0.125-1.5 0.13388-0.4125 0.35592-1.2 0.49342-1.75s0.34375-1.1125 0.45833-1.25c0.11458-0.1375 0.31587-1.1979 0.44731-2.3565 0.19884-1.7527-0.61289-2.3305-4.8333-3.4404-4.4346-1.1662-8.0228-1.571-8.8223-0.99532-0.1375 0.099006-1.5935 0.35461-3.2356 0.56801s-3.143 0.8602-3.3354 1.4373c-0.19238 0.57713-0.73055 0.814-1.1959 0.52637-1.336-0.82568-3.983 3.6698-3.983 6.7644 0 3.9973 2.1539 4.3178 7.6831 1.1433l4.8169-2.7655-8.8562 8.012 2.1781 2.1781c2.3089 2.3089 5.5565 2.7542 9.363 1.2838z" fill="#36464d"/>
</svg>
