<?xml version="1.0" encoding="UTF-8"?>
<!-- Created with Inkscape (http://www.inkscape.org/) -->
<svg width="96" height="96" version="1.1" viewBox="0 0 96 96" xmlns="http://www.w3.org/2000/svg" xmlns:cc="http://creativecommons.org/ns#" xmlns:dc="http://purl.org/dc/elements/1.1/" xmlns:rdf="http://www.w3.org/1999/02/22-rdf-syntax-ns#">
 <metadata>
  <rdf:RDF>
   <cc:Work rdf:about="">
    <dc:format>image/svg+xml</dc:format>
    <dc:type rdf:resource="http://purl.org/dc/dcmitype/StillImage"/>
    <dc:title/>
   </cc:Work>
  </rdf:RDF>
 </metadata>
 <g transform="translate(.17391)">
  <!--<path d="m0 48v-48h96v96h-96z" fill="#fefbfb"/>-->
  <path d="m23.075 70.302c-3.6326-11.432-5.864-21.029-8.0679-34.699-1.6756-10.393-2.9253-18.987-2.777-19.097 0.14826-0.1101 10.478-1.6147 22.956-3.3436l22.686-3.1434 12.137 9.1931c11.569 8.7631 12.112 9.3357 11.61 12.241-0.28978 1.6762-1.4823 11.148-2.6501 21.048s-2.4458 18.335-2.8401 18.744c-0.39426 0.40901-10.509 3.649-22.478 7.2001s-22.615 6.7273-23.658 7.0584c-1.6812 0.53358-2.467-1.1931-6.9179-15.2zm17.181-6.4496 3.7566-0.9331-4.3513-7.5605-14.46 2.8773 2.9045 8.5242 4.1968-0.9874c2.3083-0.54307 5.8873-1.4073 7.9535-1.9205zm11.488-16.643 7.2444-1.709-4.6666-5.75c-3.0142-3.7139-5.4149-5.75-6.7799-5.75-2.3918 0-24.856 3.9986-25.388 4.5189-0.18984 0.18594-0.02959 1.7749 0.35612 3.531 0.76518 3.4839 0.4305 3.4468 12.489 1.3823 3.1358-0.53689 3.688-0.2784 5.3065 2.4843 2.0862 3.561 1.9077 3.5408 11.438 1.2926zm18.071-16.037c1.8058-0.36933 3.2859-1.042 3.2891-1.4948 0.0032-0.45282-3.7767-3.6764-8.3998-7.1635l-8.4055-6.3401-18.65 2.5576c-18.535 2.5418-18.65 2.573-18.65 5.0534 0 2.8098-0.7574 2.8059 20.045 0.10321l9.5449-1.2401 4.8754 5.2122c5.295 5.6608 5.0802 5.6172 16.351 3.3122z" fill="#d23030"/>
 </g>
</svg>
